<svg width="221" height="77" viewBox="0 0 221 77" fill="none" xmlns="http://www.w3.org/2000/svg">
<g clip-path="url(#clip0_1_19)">
<g style="mix-blend-mode:multiply" opacity="0.75">
<g style="mix-blend-mode:screen">
<path d="M199.188 11.1467H16.2956C7.36645 11.1467 0.12793 18.3853 0.12793 27.3144V60.8325C0.12793 69.7617 7.36645 77.0002 16.2956 77.0002H199.188C208.117 77.0002 215.356 69.7617 215.356 60.8325V27.3144C215.356 18.3853 208.117 11.1467 199.188 11.1467Z" fill="white"/>
</g>
<path d="M198.978 11.4041H16.5039C7.63393 11.4041 0.443359 18.5946 0.443359 27.4646V60.6304C0.443359 69.5004 7.63393 76.691 16.5039 76.691H198.978C207.848 76.691 215.038 69.5004 215.038 60.6304V27.4646C215.038 18.5946 207.848 11.4041 198.978 11.4041Z" fill="#FCFCFC"/>
<path d="M198.77 11.6614H16.713C7.9028 11.6614 0.760681 18.8035 0.760681 27.6137V60.4295C0.760681 69.2397 7.9028 76.3818 16.713 76.3818H198.77C207.581 76.3818 214.723 69.2397 214.723 60.4295V27.6137C214.723 18.8035 207.581 11.6614 198.77 11.6614Z" fill="#FAFAFA"/>
<path d="M198.561 11.9175H16.9203C8.16984 11.9175 1.07617 19.0111 1.07617 27.7616V60.2262C1.07617 68.9767 8.16984 76.0704 16.9203 76.0704H198.561C207.312 76.0704 214.406 68.9767 214.406 60.2262V27.7616C214.406 19.0111 207.312 11.9175 198.561 11.9175Z" fill="#F7F7F7"/>
<path d="M198.353 12.1748H17.1305C8.43914 12.1748 1.39343 19.2205 1.39343 27.9118V60.0242C1.39343 68.7155 8.43914 75.7612 17.1305 75.7612H198.353C207.044 75.7612 214.09 68.7155 214.09 60.0242V27.9118C214.09 19.2205 207.044 12.1748 198.353 12.1748Z" fill="#F4F4F4"/>
<path d="M17.3388 12.4321H198.144C206.769 12.4321 213.773 19.4354 213.773 28.0609V59.8232C213.773 68.4487 206.769 75.452 198.144 75.452H17.3388C8.71327 75.452 1.70996 68.4487 1.70996 59.8232V28.0609C1.70996 19.4354 8.71327 12.4321 17.3388 12.4321Z" fill="#F1F1F1"/>
<path d="M197.936 12.6895H17.5468C8.97499 12.6895 2.02618 19.6383 2.02618 28.21V59.6223C2.02618 68.194 8.97499 75.1428 17.5468 75.1428H197.936C206.507 75.1428 213.456 68.194 213.456 59.6223V28.21C213.456 19.6383 206.507 12.6895 197.936 12.6895Z" fill="#EFEFEF"/>
<path d="M197.727 12.9468H17.7562C9.24362 12.9468 2.34277 19.8476 2.34277 28.3603V59.4191C2.34277 67.9317 9.24362 74.8326 17.7562 74.8326H197.727C206.239 74.8326 213.14 67.9317 213.14 59.4191V28.3603C213.14 19.8476 206.239 12.9468 197.727 12.9468Z" fill="#ECECEC"/>
<path d="M197.518 13.2041H17.9642C9.51133 13.2041 2.65894 20.0565 2.65894 28.5094V59.2181C2.65894 67.671 9.51133 74.5234 17.9642 74.5234H197.518C205.971 74.5234 212.823 67.671 212.823 59.2181V28.5094C212.823 20.0565 205.971 13.2041 197.518 13.2041Z" fill="#E9E9E9"/>
<path d="M197.31 13.4614H18.1726C9.77953 13.4614 2.97559 20.2654 2.97559 28.6585V59.0172C2.97559 67.4103 9.77953 74.2142 18.1726 74.2142H197.31C205.703 74.2142 212.507 67.4103 212.507 59.0172V28.6585C212.507 20.2654 205.703 13.4614 197.31 13.4614Z" fill="#E7E7E7"/>
<path d="M197.101 13.7185H18.3819C10.048 13.7185 3.29199 20.4745 3.29199 28.8084V58.8149C3.29199 67.1488 10.048 73.9048 18.3819 73.9048H197.101C205.435 73.9048 212.191 67.1488 212.191 58.8149V28.8084C212.191 20.4745 205.435 13.7185 197.101 13.7185Z" fill="#E4E4E4"/>
<path d="M196.893 13.9758H18.5903C10.3162 13.9758 3.60864 20.6834 3.60864 28.9575V58.6128C3.60864 66.887 10.3162 73.5945 18.5903 73.5945H196.893C205.167 73.5945 211.875 66.887 211.875 58.6128V28.9575C211.875 20.6834 205.167 13.9758 196.893 13.9758Z" fill="#E1E1E1"/>
<path d="M18.799 14.2332H196.684C204.894 14.2332 211.558 20.8975 211.558 29.1066V58.4119C211.558 66.6211 204.894 73.2854 196.684 73.2854H18.799C10.5898 73.2854 3.92554 66.6211 3.92554 58.4119V29.1066C3.92554 20.8975 10.5898 14.2332 18.799 14.2332Z" fill="#DEDEDE"/>
<path d="M196.476 14.4905H19.0078C10.8525 14.4905 4.24139 21.1016 4.24139 29.2568V58.2098C4.24139 66.3651 10.8525 72.9762 19.0078 72.9762H196.476C204.631 72.9762 211.242 66.3651 211.242 58.2098V29.2568C211.242 21.1016 204.631 14.4905 196.476 14.4905Z" fill="#DCDCDC"/>
<path d="M196.268 14.7478H19.2158C11.1203 14.7478 4.55762 21.3105 4.55762 29.406V58.0089C4.55762 66.1044 11.1203 72.667 19.2158 72.667H196.268C204.363 72.667 210.926 66.1044 210.926 58.0089V29.406C210.926 21.3105 204.363 14.7478 196.268 14.7478Z" fill="#D9D9D9"/>
<path d="M196.06 15.0051H19.4241C11.3884 15.0051 4.87415 21.5194 4.87415 29.5551V57.8068C4.87415 65.8425 11.3884 72.3568 19.4241 72.3568H196.06C204.095 72.3568 210.609 65.8425 210.609 57.8068V29.5551C210.609 21.5194 204.095 15.0051 196.06 15.0051Z" fill="#D6D6D6"/>
<path d="M195.851 15.2612H19.6342C11.6577 15.2612 5.19141 21.7275 5.19141 29.704V57.6036C5.19141 65.5801 11.6577 72.0464 19.6342 72.0464H195.851C203.828 72.0464 210.294 65.5801 210.294 57.6036V29.704C210.294 21.7275 203.828 15.2612 195.851 15.2612Z" fill="#D4D4D4"/>
<path d="M195.642 15.5186H19.8415C11.9247 15.5186 5.5069 21.9364 5.5069 29.8532V57.4026C5.5069 65.3194 11.9247 71.7372 19.8415 71.7372H195.642C203.559 71.7372 209.977 65.3194 209.977 57.4026V29.8532C209.977 21.9364 203.559 15.5186 195.642 15.5186Z" fill="#D1D1D1"/>
<path d="M195.434 15.7759H20.0506C12.1936 15.7759 5.82422 22.1452 5.82422 30.0023V57.2017C5.82422 65.0587 12.1936 71.428 20.0506 71.428H195.434C203.291 71.428 209.66 65.0587 209.66 57.2017V30.0023C209.66 22.1452 203.291 15.7759 195.434 15.7759Z" fill="#CECECE"/>
<path d="M195.224 16.0332H20.2589C12.461 16.0332 6.13959 22.3546 6.13959 30.1525V56.9996C6.13959 64.7975 12.461 71.1189 20.2589 71.1189H195.224C203.021 71.1189 209.343 64.7975 209.343 56.9996V30.1525C209.343 22.3546 203.021 16.0332 195.224 16.0332Z" fill="#CBCBCB"/>
<path d="M195.016 16.2905H20.4681C12.73 16.2905 6.45703 22.5635 6.45703 30.3016V56.7976C6.45703 64.5356 12.73 70.8086 20.4681 70.8086H195.016C202.755 70.8086 209.027 64.5356 209.027 56.7976V30.3016C209.027 22.5635 202.755 16.2905 195.016 16.2905Z" fill="#C9C9C9"/>
<path d="M194.807 16.5479H20.6752C12.9968 16.5479 6.77234 22.7724 6.77234 30.4507V56.5966C6.77234 64.2749 12.9968 70.4994 20.6752 70.4994H194.807C202.486 70.4994 208.71 64.2749 208.71 56.5966V30.4507C208.71 22.7724 202.486 16.5479 194.807 16.5479Z" fill="#C6C6C6"/>
<path d="M194.598 16.8052H20.8846C13.2654 16.8052 7.08887 22.9817 7.08887 30.6009V56.3945C7.08887 64.0137 13.2654 70.1903 20.8846 70.1903H194.598C202.217 70.1903 208.394 64.0137 208.394 56.3945V30.6009C208.394 22.9817 202.217 16.8052 194.598 16.8052Z" fill="#C3C3C3"/>
<path d="M194.39 17.0623H21.0926C13.5332 17.0623 7.40509 23.1904 7.40509 30.7497V56.1933C7.40509 63.7527 13.5332 69.8808 21.0926 69.8808H194.39C201.949 69.8808 208.077 63.7527 208.077 56.1933V30.7497C208.077 23.1904 201.949 17.0623 194.39 17.0623Z" fill="#C1C1C1"/>
<path d="M194.182 17.3196H21.301C13.8013 17.3196 7.72168 23.3992 7.72168 30.8989V55.9913C7.72168 63.4909 13.8013 69.5706 21.301 69.5706H194.182C201.681 69.5706 207.761 63.4909 207.761 55.9913V30.8989C207.761 23.3992 201.681 17.3196 194.182 17.3196Z" fill="#BEBEBE"/>
<path d="M193.972 17.5769H21.51C14.0695 17.5769 8.03784 23.6086 8.03784 31.0491V55.7892C8.03784 63.2297 14.0695 69.2614 21.51 69.2614H193.972C201.413 69.2614 207.445 63.2297 207.445 55.7892V31.0491C207.445 23.6086 201.413 17.5769 193.972 17.5769Z" fill="#BBBBBB"/>
<path d="M193.765 17.8342H21.7184C14.3377 17.8342 8.35449 23.8175 8.35449 31.1982V55.5883C8.35449 62.969 14.3377 68.9522 21.7184 68.9522H193.765C201.145 68.9522 207.128 62.969 207.128 55.5883V31.1982C207.128 23.8175 201.145 17.8342 193.765 17.8342Z" fill="#B8B8B8"/>
<path d="M193.556 18.0916H21.9286C14.607 18.0916 8.67175 24.0268 8.67175 31.3484V55.3862C8.67175 62.7078 14.607 68.6431 21.9286 68.6431H193.556C200.878 68.6431 206.813 62.7078 206.813 55.3862V31.3484C206.813 24.0268 200.878 18.0916 193.556 18.0916Z" fill="#B6B6B6"/>
<path d="M22.1362 18.3489H193.347C200.605 18.3489 206.496 24.2402 206.496 31.4975V55.1853C206.496 62.4426 200.605 68.3339 193.347 68.3339H22.1362C14.8789 68.3339 8.98755 62.4426 8.98755 55.1853V31.4975C8.98755 24.2402 14.8789 18.3489 22.1362 18.3489Z" fill="#B3B3B3"/>
<path d="M193.139 18.605H22.3449C15.1429 18.605 9.3045 24.4434 9.3045 31.6454V54.982C9.3045 62.184 15.1429 68.0224 22.3449 68.0224H193.139C200.341 68.0224 206.179 62.184 206.179 54.982V31.6454C206.179 24.4434 200.341 18.605 193.139 18.605Z" fill="#B0B0B0"/>
<path d="M192.929 18.8623H22.5536C15.4107 18.8623 9.6203 24.6527 9.6203 31.7956V54.78C9.6203 61.9228 15.4107 67.7132 22.5536 67.7132H192.929C200.072 67.7132 205.862 61.9228 205.862 54.78V31.7956C205.862 24.6527 200.072 18.8623 192.929 18.8623Z" fill="#AEAEAE"/>
<path d="M192.722 19.1196H22.7626C15.6795 19.1196 9.9375 24.8616 9.9375 31.9447V54.579C9.9375 61.6621 15.6795 67.4041 22.7626 67.4041H192.722C199.805 67.4041 205.547 61.6621 205.547 54.579V31.9447C205.547 24.8616 199.805 19.1196 192.722 19.1196Z" fill="#ABABAB"/>
<path d="M192.513 19.377H22.9699C15.9466 19.377 10.2531 25.0705 10.2531 32.0938V54.377C10.2531 61.4003 15.9466 67.0938 22.9699 67.0938H192.513C199.536 67.0938 205.229 61.4003 205.229 54.377V32.0938C205.229 25.0705 199.536 19.377 192.513 19.377Z" fill="#A8A8A8"/>
<path d="M192.304 19.6343H23.18C16.2159 19.6343 10.5703 25.2798 10.5703 32.244V54.1749C10.5703 61.1391 16.2159 66.7846 23.18 66.7846H192.304C199.268 66.7846 204.914 61.1391 204.914 54.1749V32.244C204.914 25.2798 199.268 19.6343 192.304 19.6343Z" fill="#A5A5A5"/>
<path d="M192.095 19.8916H23.3873C16.4829 19.8916 10.8858 25.4887 10.8858 32.3931V53.9739C10.8858 60.8783 16.4829 66.4754 23.3873 66.4754H192.095C199 66.4754 204.597 60.8783 204.597 53.9739V32.3931C204.597 25.4887 199 19.8916 192.095 19.8916Z" fill="#A3A3A3"/>
<path d="M23.5964 20.1489H191.888C198.728 20.1489 204.281 25.7023 204.281 32.5422V53.7719C204.281 60.6118 198.728 66.1652 191.888 66.1652H23.5964C16.7565 66.1652 11.2031 60.6118 11.2031 53.7719V32.5422C11.2031 25.7023 16.7565 20.1489 23.5964 20.1489Z" fill="#A0A0A0"/>
<path d="M191.678 20.406H23.8047C17.0193 20.406 11.5186 25.9067 11.5186 32.6922V53.5696C11.5186 60.3551 17.0193 65.8558 23.8047 65.8558H191.678C198.463 65.8558 203.964 60.3551 203.964 53.5696V32.6922C203.964 25.9067 198.463 20.406 191.678 20.406Z" fill="#9D9D9D"/>
<path d="M191.471 20.6633H24.0139C17.2882 20.6633 11.8359 26.1156 11.8359 32.8413V53.3687C11.8359 60.0943 17.2882 65.5466 24.0139 65.5466H191.471C198.196 65.5466 203.649 60.0943 203.649 53.3687V32.8413C203.649 26.1156 198.196 20.6633 191.471 20.6633Z" fill="#9B9B9B"/>
<path d="M191.263 20.9207H24.2221C17.5562 20.9207 12.1524 26.3245 12.1524 32.9904V53.1677C12.1524 59.8336 17.5562 65.2374 24.2221 65.2374H191.263C197.928 65.2374 203.332 59.8336 203.332 53.1677V32.9904C203.332 26.3245 197.928 20.9207 191.263 20.9207Z" fill="#989898"/>
<path d="M191.052 21.178H24.4304C17.8236 21.178 12.4678 26.5338 12.4678 33.1406V52.9656C12.4678 59.5724 17.8236 64.9283 24.4304 64.9283H191.052C197.659 64.9283 203.015 59.5724 203.015 52.9656V33.1406C203.015 26.5338 197.659 21.178 191.052 21.178Z" fill="#959595"/>
<path d="M190.845 21.4353H24.6396C18.0925 21.4353 12.7852 26.7427 12.7852 33.2897V52.7636C12.7852 59.3106 18.0925 64.618 24.6396 64.618H190.845C197.392 64.618 202.7 59.3106 202.7 52.7636V33.2897C202.7 26.7427 197.392 21.4353 190.845 21.4353Z" fill="#929292"/>
<path d="M190.635 21.6926H24.8468C18.3595 21.6926 13.1006 26.9516 13.1006 33.4388V52.5626C13.1006 59.0499 18.3595 64.3088 24.8468 64.3088H190.635C197.122 64.3088 202.381 59.0499 202.381 52.5626V33.4388C202.381 26.9516 197.122 21.6926 190.635 21.6926Z" fill="#909090"/>
<path d="M190.427 21.9487H25.057C18.6289 21.9487 13.4179 27.1597 13.4179 33.5878V52.3594C13.4179 58.7874 18.6289 63.9984 25.057 63.9984H190.427C196.855 63.9984 202.066 58.7874 202.066 52.3594V33.5878C202.066 27.1597 196.855 21.9487 190.427 21.9487Z" fill="#8D8D8D"/>
<path d="M190.218 22.2061H25.2642C18.8959 22.2061 13.7334 27.3686 13.7334 33.7369V52.1584C13.7334 58.5267 18.8959 63.6893 25.2642 63.6893H190.218C196.586 63.6893 201.748 58.5267 201.748 52.1584V33.7369C201.748 27.3686 196.586 22.2061 190.218 22.2061Z" fill="#8A8A8A"/>
<path d="M190.01 22.4634H25.4733C19.1647 22.4634 14.0507 27.5775 14.0507 33.886V51.9575C14.0507 58.266 19.1647 63.3801 25.4733 63.3801H190.01C196.319 63.3801 201.433 58.266 201.433 51.9575V33.886C201.433 27.5775 196.319 22.4634 190.01 22.4634Z" fill="#888888"/>
<path d="M189.8 22.7207H25.6817C19.4323 22.7207 14.3662 27.7868 14.3662 34.0362V51.7543C14.3662 58.0037 19.4323 63.0698 25.6817 63.0698H189.8C196.05 63.0698 201.116 58.0037 201.116 51.7543V34.0362C201.116 27.7868 196.05 22.7207 189.8 22.7207Z" fill="#858585"/>
<path d="M189.593 22.978H25.8907C19.7011 22.978 14.6834 27.9957 14.6834 34.1853V51.5534C14.6834 57.743 19.7011 62.7606 25.8907 62.7606H189.593C195.783 62.7606 200.8 57.743 200.8 51.5534V34.1853C200.8 27.9957 195.783 22.978 189.593 22.978Z" fill="#828282"/>
<path d="M189.384 23.2354H26.0983C19.9684 23.2354 14.9992 28.2046 14.9992 34.3344V51.3524C14.9992 57.4823 19.9684 62.4515 26.0983 62.4515H189.384C195.514 62.4515 200.483 57.4823 200.483 51.3524V34.3344C200.483 28.2046 195.514 23.2354 189.384 23.2354Z" fill="#808080"/>
<path d="M189.176 23.4927H26.3084C20.2377 23.4927 15.3164 28.4139 15.3164 34.4846V51.1504C15.3164 57.221 20.2377 62.1423 26.3084 62.1423H189.176C195.246 62.1423 200.168 57.221 200.168 51.1504V34.4846C200.168 28.4139 195.246 23.4927 189.176 23.4927Z" fill="#7D7D7D"/>
<path d="M188.967 23.7498H26.5157C20.5048 23.7498 15.632 28.6226 15.632 34.6335V50.9481C15.632 56.959 20.5048 61.8318 26.5157 61.8318H188.967C194.978 61.8318 199.85 56.959 199.85 50.9481V34.6335C199.85 28.6226 194.978 23.7498 188.967 23.7498Z" fill="#7A7A7A"/>
<path d="M188.759 24.0071H26.7247C20.7736 24.0071 15.9492 28.8314 15.9492 34.7826V50.7471C15.9492 56.6983 20.7736 61.5226 26.7247 61.5226H188.759C194.711 61.5226 199.535 56.6983 199.535 50.7471V34.7826C199.535 28.8314 194.711 24.0071 188.759 24.0071Z" fill="#777777"/>
<path d="M26.9331 24.2644H188.549C194.437 24.2644 199.218 29.0448 199.218 34.9328V50.545C199.218 56.433 194.437 61.2135 188.549 61.2135H26.9331C21.0451 61.2135 16.2647 56.433 16.2647 50.545V34.9328C16.2647 29.0448 21.0451 24.2644 26.9331 24.2644Z" fill="#757575"/>
<path d="M188.342 24.5217H27.1422C21.31 24.5217 16.582 29.2497 16.582 35.0819V50.3441C16.582 56.1763 21.31 60.9043 27.1422 60.9043H188.342C194.174 60.9043 198.902 56.1763 198.902 50.3441V35.0819C198.902 29.2497 194.174 24.5217 188.342 24.5217Z" fill="#727272"/>
<path d="M188.133 24.7791H27.3505C21.5781 24.7791 16.8986 29.4586 16.8986 35.231V50.142C16.8986 55.9145 21.5781 60.594 27.3505 60.594H188.133C193.905 60.594 198.585 55.9145 198.585 50.142V35.231C198.585 29.4586 193.905 24.7791 188.133 24.7791Z" fill="#6F6F6F"/>
<path d="M187.924 25.0364H27.5597C21.8464 25.0364 17.2148 29.6679 17.2148 35.3812V49.94C17.2148 55.6533 21.8464 60.2848 27.5597 60.2848H187.924C193.637 60.2848 198.268 55.6533 198.268 49.94V35.3812C198.268 29.6679 193.637 25.0364 187.924 25.0364Z" fill="#6D6D6D"/>
<path d="M187.716 25.2925H27.7679C22.1144 25.2925 17.5313 29.8756 17.5313 35.5291V49.7378C17.5313 55.3914 22.1144 59.9744 27.7679 59.9744H187.716C193.369 59.9744 197.952 55.3914 197.952 49.7378V35.5291C197.952 29.8756 193.369 25.2925 187.716 25.2925Z" fill="#6A6A6A"/>
<path d="M187.506 25.5498H27.9751C22.3813 25.5498 17.8467 30.0844 17.8467 35.6782V49.5369C17.8467 55.1306 22.3813 59.6653 27.9751 59.6653H187.506C193.1 59.6653 197.635 55.1306 197.635 49.5369V35.6782C197.635 30.0844 193.1 25.5498 187.506 25.5498Z" fill="#676767"/>
<path d="M187.298 25.8071H28.1854C22.6507 25.8071 18.1641 30.2938 18.1641 35.8284V49.3337C18.1641 54.8683 22.6507 59.355 28.1854 59.355H187.298C192.833 59.355 197.319 54.8683 197.319 49.3337V35.8284C197.319 30.2938 192.833 25.8071 187.298 25.8071Z" fill="#646464"/>
<path d="M28.3945 26.0645H187.09C192.562 26.0645 197.003 30.507 197.003 35.9775V49.1328C197.003 54.6044 192.561 59.0458 187.09 59.0458H28.3945C22.9228 59.0458 18.4814 54.6033 18.4814 49.1328V35.9775C18.4814 30.5058 22.9239 26.0645 28.3945 26.0645Z" fill="#626262"/>
<path d="M186.882 26.3218H28.6017C23.1866 26.3218 18.7968 30.7116 18.7968 36.1266V48.9318C18.7968 54.3469 23.1866 58.7367 28.6017 58.7367H186.882C192.297 58.7367 196.687 54.3469 196.687 48.9318V36.1266C196.687 30.7116 192.297 26.3218 186.882 26.3218Z" fill="#5F5F5F"/>
<path d="M186.672 26.5791H28.81C23.4541 26.5791 19.1123 30.9209 19.1123 36.2768V48.7298C19.1123 54.0857 23.4541 58.4275 28.81 58.4275H186.672C192.028 58.4275 196.369 54.0857 196.369 48.7298V36.2768C196.369 30.9209 192.028 26.5791 186.672 26.5791Z" fill="#5C5C5C"/>
<path d="M186.464 26.8362H29.0191C23.7229 26.8362 19.4296 31.1296 19.4296 36.4257V48.5275C19.4296 53.8236 23.7229 58.117 29.0191 58.117H186.464C191.761 58.117 196.054 53.8236 196.054 48.5275V36.4257C196.054 31.1296 191.761 26.8362 186.464 26.8362Z" fill="#5A5A5A"/>
<path d="M186.255 27.0935H29.2285C23.9915 27.0935 19.7461 31.3389 19.7461 36.5759V48.3254C19.7461 53.5624 23.9915 57.8078 29.2285 57.8078H186.255C191.492 57.8078 195.738 53.5624 195.738 48.3254V36.5759C195.738 31.3389 191.492 27.0935 186.255 27.0935Z" fill="#575757"/>
<path d="M186.047 27.3508H29.4365C24.2593 27.3508 20.0623 31.5478 20.0623 36.725V48.1245C20.0623 53.3017 24.2593 57.4986 29.4365 57.4986H186.047C191.224 57.4986 195.421 53.3017 195.421 48.1245V36.725C195.421 31.5478 191.224 27.3508 186.047 27.3508Z" fill="#545454"/>
<path d="M185.838 27.6082H29.6449C24.5274 27.6082 20.3789 31.7567 20.3789 36.8741V47.9235C20.3789 53.041 24.5274 57.1895 29.6449 57.1895H185.838C190.955 57.1895 195.104 53.041 195.104 47.9235V36.8741C195.104 31.7567 190.955 27.6082 185.838 27.6082Z" fill="#515151"/>
<path d="M185.629 27.8655H29.8539C24.7956 27.8655 20.6951 31.966 20.6951 37.0243V47.7203C20.6951 52.7786 24.7956 56.8792 29.8539 56.8792H185.629C190.687 56.8792 194.787 52.7786 194.787 47.7203V37.0243C194.787 31.966 190.687 27.8655 185.629 27.8655Z" fill="#4F4F4F"/>
<path d="M185.421 28.1228H30.0624C25.0638 28.1228 21.0117 32.1749 21.0117 37.1734V47.5194C21.0117 52.5179 25.0638 56.57 30.0624 56.57H185.421C190.419 56.57 194.471 52.5179 194.471 47.5194V37.1734C194.471 32.1749 190.419 28.1228 185.421 28.1228Z" fill="#4C4C4C"/>
<path d="M30.2714 28.3789H185.212C190.148 28.3789 194.155 32.3863 194.155 37.3213V47.3172C194.155 52.2533 190.147 56.2596 185.212 56.2596H30.2714C25.3353 56.2596 21.329 52.2522 21.329 47.3172V37.3213C21.329 32.3852 25.3364 28.3789 30.2714 28.3789Z" fill="#494949"/>
<path d="M185.004 28.6362H30.4801C25.6005 28.6362 21.6448 32.5919 21.6448 37.4715V47.1152C21.6448 51.9948 25.6005 55.9505 30.4801 55.9505H185.004C189.883 55.9505 193.839 51.9948 193.839 47.1152V37.4715C193.839 32.5919 189.883 28.6362 185.004 28.6362Z" fill="#474747"/>
<path d="M184.795 28.8936H30.688C25.8682 28.8936 21.9609 32.8008 21.9609 37.6206V46.9142C21.9609 51.7341 25.8682 55.6413 30.688 55.6413H184.795C189.615 55.6413 193.522 51.7341 193.522 46.9142V37.6206C193.522 32.8008 189.615 28.8936 184.795 28.8936Z" fill="#444444"/>
<path d="M184.587 29.1509H30.8964C26.1363 29.1509 22.2775 33.0097 22.2775 37.7697V46.7122C22.2775 51.4722 26.1363 55.331 30.8964 55.331H184.587C189.347 55.331 193.206 51.4722 193.206 46.7122V37.7697C193.206 33.0097 189.347 29.1509 184.587 29.1509Z" fill="#414141"/>
<path d="M184.378 29.4082H31.1055C26.4046 29.4082 22.5938 33.219 22.5938 37.92V46.5101C22.5938 51.211 26.4046 55.0219 31.1055 55.0219H184.378C189.079 55.0219 192.89 51.211 192.89 46.5101V37.92C192.89 33.219 189.079 29.4082 184.378 29.4082Z" fill="#3E3E3E"/>
<path d="M184.17 29.6655H31.3138C26.6727 29.6655 22.9103 33.4279 22.9103 38.0691V46.3092C22.9103 50.9503 26.6727 54.7127 31.3138 54.7127H184.17C188.811 54.7127 192.573 50.9503 192.573 46.3092V38.0691C192.573 33.4279 188.811 29.6655 184.17 29.6655Z" fill="#3C3C3C"/>
<path d="M183.963 29.9229H31.5229C26.9415 29.9229 23.2275 33.6368 23.2275 38.2182V46.1082C23.2275 50.6896 26.9415 54.4035 31.5229 54.4035H183.963C188.544 54.4035 192.258 50.6896 192.258 46.1082V38.2182C192.258 33.6368 188.544 29.9229 183.963 29.9229Z" fill="#393939"/>
<path d="M183.752 30.1799H31.7312C27.209 30.1799 23.543 33.8459 23.543 38.3681V45.9048C23.543 50.427 27.209 54.093 31.7312 54.093H183.752C188.275 54.093 191.941 50.427 191.941 45.9048V38.3681C191.941 33.8459 188.275 30.1799 183.752 30.1799Z" fill="#363636"/>
<path d="M183.545 30.4373H31.9403C27.4779 30.4373 23.8604 34.0548 23.8604 38.5172V45.7039C23.8604 50.1663 27.4779 53.7838 31.9403 53.7838H183.545C188.008 53.7838 191.625 50.1663 191.625 45.7039V38.5172C191.625 34.0548 188.008 30.4373 183.545 30.4373Z" fill="#343434"/>
<path d="M183.335 30.6946H32.1475C27.7449 30.6946 24.1758 34.2637 24.1758 38.6663V45.5029C24.1758 49.9056 27.7449 53.4747 32.1475 53.4747H183.335C187.738 53.4747 191.307 49.9056 191.307 45.5029V38.6663C191.307 34.2637 187.738 30.6946 183.335 30.6946Z" fill="#313131"/>
<path d="M183.127 30.9519H32.3578C28.0143 30.9519 24.4932 34.473 24.4932 38.8166V45.3009C24.4932 49.6444 28.0143 53.1655 32.3578 53.1655H183.127C187.47 53.1655 190.991 49.6444 190.991 45.3009V38.8166C190.991 34.473 187.47 30.9519 183.127 30.9519Z" fill="#2E2E2E"/>
<path d="M182.917 31.2092H32.5649C28.2811 31.2092 24.8085 34.6819 24.8085 38.9657V45.0988C24.8085 49.3826 28.2811 52.8552 32.5649 52.8552H182.917C187.201 52.8552 190.674 49.3826 190.674 45.0988V38.9657C190.674 34.6819 187.201 31.2092 182.917 31.2092Z" fill="#2B2B2B"/>
<path d="M182.709 31.4666H32.7732C28.5492 31.4666 25.125 34.8908 25.125 39.1148V44.8978C25.125 49.1218 28.5492 52.5461 32.7732 52.5461H182.709C186.933 52.5461 190.358 49.1218 190.358 44.8978V39.1148C190.358 34.8908 186.933 31.4666 182.709 31.4666Z" fill="#292929"/>
<path d="M182.5 31.7227H32.9823C28.8175 31.7227 25.4412 35.0989 25.4412 39.2638V44.6946C25.4412 48.8594 28.8175 52.2357 32.9823 52.2357H182.5C186.665 52.2357 190.041 48.8594 190.041 44.6946V39.2638C190.041 35.0989 186.665 31.7227 182.5 31.7227Z" fill="#262626"/>
<path d="M33.1907 31.98H182.292C186.395 31.98 189.725 35.3105 189.725 39.4129V44.4936C189.725 48.596 186.395 51.9265 182.292 51.9265H33.1907C29.0883 51.9265 25.7578 48.596 25.7578 44.4936V39.4129C25.7578 35.3105 29.0883 31.98 33.1907 31.98Z" fill="#232323"/>
<path d="M182.084 32.2373H33.3986C29.3533 32.2373 26.074 35.5167 26.074 39.562V44.2916C26.074 48.3369 29.3533 51.6162 33.3986 51.6162H182.084C186.129 51.6162 189.408 48.3369 189.408 44.2916V39.562C189.408 35.5167 186.129 32.2373 182.084 32.2373Z" fill="#212121"/>
<path d="M181.875 32.4946H33.6082C29.622 32.4946 26.3906 35.726 26.3906 39.7122V44.0895C26.3906 48.0757 29.622 51.3071 33.6082 51.3071H181.875C185.861 51.3071 189.092 48.0757 189.092 44.0895V39.7122C189.092 35.726 185.861 32.4946 181.875 32.4946Z" fill="#1E1E1E"/>
<path d="M181.668 32.752H33.8172C29.8908 32.752 26.7079 35.9349 26.7079 39.8613V43.8886C26.7079 47.8149 29.8908 50.9979 33.8172 50.9979H181.668C185.594 50.9979 188.777 47.8149 188.777 43.8886V39.8613C188.777 35.9349 185.594 32.752 181.668 32.752Z" fill="#1B1B1B"/>
<path d="M181.459 33.0093H34.0248C30.1582 33.0093 27.0237 36.1438 27.0237 40.0104V43.6876C27.0237 47.5542 30.1582 50.6887 34.0248 50.6887H181.459C185.325 50.6887 188.46 47.5542 188.46 43.6876V40.0104C188.46 36.1438 185.325 33.0093 181.459 33.0093Z" fill="#181818"/>
<path d="M181.25 33.2666H34.2346C30.4272 33.2666 27.3406 36.3531 27.3406 40.1606V43.4845C27.3406 47.2919 30.4272 50.3784 34.2346 50.3784H181.25C185.058 50.3784 188.144 47.2919 188.144 43.4845V40.1606C188.144 36.3531 185.058 33.2666 181.25 33.2666Z" fill="#161616"/>
<path d="M181.04 33.5237H34.4422C30.6945 33.5237 27.6564 36.5618 27.6564 40.3095V43.2833C27.6564 47.0309 30.6945 50.069 34.4422 50.069H181.04C184.788 50.069 187.826 47.0309 187.826 43.2833V40.3095C187.826 36.5618 184.788 33.5237 181.04 33.5237Z" fill="#131313"/>
<path d="M180.833 33.781H34.6512C30.9633 33.781 27.9736 36.7706 27.9736 40.4586V43.0823C27.9736 46.7702 30.9633 49.7599 34.6512 49.7599H180.833C184.521 49.7599 187.51 46.7702 187.51 43.0823V40.4586C187.51 36.7706 184.521 33.781 180.833 33.781Z" fill="#101010"/>
<path d="M180.623 34.0383H34.8596C31.2309 34.0383 28.2892 36.98 28.2892 40.6088V42.8803C28.2892 46.509 31.2309 49.4507 34.8596 49.4507H180.623C184.252 49.4507 187.193 46.509 187.193 42.8803V40.6088C187.193 36.98 184.252 34.0383 180.623 34.0383Z" fill="#0E0E0E"/>
<path d="M180.416 34.2957H35.0687C31.4997 34.2957 28.6064 37.1889 28.6064 40.7579V42.6782C28.6064 46.2472 31.4997 49.1404 35.0687 49.1404H180.416C183.985 49.1404 186.878 46.2472 186.878 42.6782V40.7579C186.878 37.1889 183.985 34.2957 180.416 34.2957Z" fill="#0B0B0B"/>
<path d="M180.207 34.553H35.2759C31.7667 34.553 28.9219 37.3978 28.9219 40.907V42.4773C28.9219 45.9865 31.7667 48.8313 35.2759 48.8313H180.207C183.716 48.8313 186.561 45.9865 186.561 42.4773V40.907C186.561 37.3978 183.716 34.553 180.207 34.553Z" fill="#080808"/>
<path d="M179.998 34.8103H35.4861C32.0361 34.8103 29.2393 37.6071 29.2393 41.0572V42.2752C29.2393 45.7253 32.0361 48.5221 35.4861 48.5221H179.998C183.448 48.5221 186.245 45.7253 186.245 42.2752V41.0572C186.245 37.6071 183.448 34.8103 179.998 34.8103Z" fill="#050505"/>
<path d="M179.789 35.0664H35.6934C32.3031 35.0664 29.5547 37.8148 29.5547 41.2051V42.073C29.5547 45.4633 32.3031 48.2117 35.6934 48.2117H179.789C183.179 48.2117 185.928 45.4633 185.928 42.073V41.2051C185.928 37.8148 183.179 35.0664 179.789 35.0664Z" fill="#030303"/>
<path d="M179.581 35.3237H35.9036C32.5725 35.3237 29.8721 38.0241 29.8721 41.3553V41.871C29.8721 45.2021 32.5725 47.9025 35.9036 47.9025H179.581C182.912 47.9025 185.612 45.2021 185.612 41.871V41.3553C185.612 38.0241 182.912 35.3237 179.581 35.3237Z" fill="black"/>
</g>
<path d="M19.7471 7.11279H195.693C204.054 7.11279 210.842 13.9008 210.842 22.2612V55.4635C210.842 63.8239 204.054 70.6119 195.693 70.6119H19.7471C11.3866 70.6119 4.59863 63.8239 4.59863 55.4635V22.2612C4.59863 13.9008 11.3866 7.11279 19.7471 7.11279Z" fill="#F0F5F7"/>
<path d="M85.8293 23.3512C88.1119 23.3512 89.4602 24.7746 89.4602 27.1952C89.4602 29.6158 88.1163 31.0447 85.8293 31.0447H83.2431V23.3501H85.8293V23.3512ZM84.2027 30.1822H85.7653C87.5089 30.1822 88.4796 29.1155 88.4796 27.2073C88.4796 25.2991 87.5144 24.2158 85.7653 24.2158H84.2027V30.1822Z" fill="#333333"/>
<path d="M90.7792 28.273C90.7792 26.5028 91.8139 25.4041 93.3489 25.4041C94.8838 25.4041 95.9141 26.5028 95.9141 28.273C95.9141 30.0431 94.8794 31.1419 93.3489 31.1419C91.8184 31.1419 90.7792 30.0376 90.7792 28.273ZM94.97 28.273C94.97 26.9666 94.3306 26.2201 93.3489 26.2201C92.3672 26.2201 91.7223 26.9666 91.7223 28.273C91.7223 29.5793 92.3672 30.3258 93.3489 30.3258C94.3306 30.3258 94.97 29.5793 94.97 28.273Z" fill="#333333"/>
<path d="M102.901 31.0457H101.957L100.704 26.7534H100.683L99.4352 31.0457H98.491L96.9395 25.5H97.8616L98.9703 30.011H98.9913L100.245 25.5H101.14L102.399 30.011H102.42L103.529 25.5H104.446L102.9 31.0457H102.901Z" fill="#333333"/>
<path d="M105.751 25.5H106.626V26.3856H106.647C106.956 25.7882 107.548 25.405 108.406 25.405C109.622 25.405 110.325 26.1891 110.325 27.4468V31.0457H109.397V27.6114C109.397 26.7158 108.976 26.2255 108.123 26.2255C107.271 26.2255 106.678 26.8439 106.678 27.7825V31.0457H105.75V25.5H105.751Z" fill="#333333"/>
<path d="M112.098 23.3511H113.025V31.0457H112.098V23.3511Z" fill="#333333"/>
<path d="M114.553 28.273C114.553 26.5028 115.587 25.4041 117.122 25.4041C118.657 25.4041 119.688 26.5028 119.688 28.273C119.688 30.0431 118.653 31.1419 117.122 31.1419C115.592 31.1419 114.553 30.0376 114.553 28.273ZM118.743 28.273C118.743 26.9666 118.104 26.2201 117.122 26.2201C116.141 26.2201 115.496 26.9666 115.496 28.273C115.496 29.5793 116.141 30.3258 117.122 30.3258C118.104 30.3258 118.743 29.5793 118.743 28.273Z" fill="#333333"/>
<path d="M120.943 29.4777C120.943 28.528 121.674 27.9317 122.953 27.8566L124.542 27.7661V27.3023C124.542 26.6254 124.094 26.2201 123.326 26.2201C122.612 26.2201 122.163 26.5558 122.046 27.1002H121.151C121.215 26.1406 122.036 25.4041 123.347 25.4041C124.658 25.4041 125.47 26.1075 125.47 27.2118V31.0458H124.59V30.0917H124.569C124.238 30.7267 123.534 31.1419 122.787 31.1419C121.683 31.1419 120.942 30.4749 120.942 29.4777H120.943ZM124.542 28.9388V28.4861L123.06 28.5766C122.314 28.6241 121.887 28.9554 121.887 29.4777C121.887 30 122.33 30.3523 122.996 30.3523C123.871 30.3523 124.542 29.7394 124.542 28.9388Z" fill="#333333"/>
<path d="M126.922 28.2728C126.922 26.5347 127.876 25.4039 129.273 25.4039C130.067 25.4039 130.707 25.7926 131.037 26.4011H131.058V23.3511H131.986V31.0457H131.1V30.107H131.085C130.727 30.7464 130.093 31.1417 129.294 31.1417C127.88 31.1417 126.921 30.011 126.921 28.2728H126.922ZM127.871 28.2728C127.871 29.5317 128.49 30.3257 129.471 30.3257C130.453 30.3257 131.066 29.5151 131.066 28.2728C131.066 27.0305 130.427 26.22 129.471 26.22C128.516 26.22 127.871 27.0195 127.871 28.2728Z" fill="#333333"/>
<path d="M136.301 28.273C136.301 26.5028 137.335 25.4041 138.87 25.4041C140.405 25.4041 141.436 26.5028 141.436 28.273C141.436 30.0431 140.401 31.1419 138.87 31.1419C137.34 31.1419 136.301 30.0376 136.301 28.273ZM140.491 28.273C140.491 26.9666 139.852 26.2201 138.87 26.2201C137.889 26.2201 137.244 26.9666 137.244 28.273C137.244 29.5793 137.889 30.3258 138.87 30.3258C139.852 30.3258 140.491 29.5793 140.491 28.273Z" fill="#333333"/>
<path d="M142.914 25.5H143.789V26.3856H143.81C144.119 25.7882 144.711 25.405 145.569 25.405C146.785 25.405 147.488 26.1891 147.488 27.4468V31.0457H146.56V27.6114C146.56 26.7158 146.139 26.2255 145.286 26.2255C144.434 26.2255 143.841 26.8439 143.841 27.7825V31.0457H142.913V25.5H142.914Z" fill="#333333"/>
<path d="M153.224 24.1616V25.5H154.301V26.2631H153.224V29.5582C153.224 30.0651 153.437 30.2937 153.912 30.2937C154.019 30.2937 154.232 30.2771 154.296 30.2672V31.0457C154.185 31.0722 153.929 31.0887 153.71 31.0887C152.692 31.0887 152.297 30.6724 152.297 29.6068V26.2631H151.471V25.5H152.297V24.1616H153.224Z" fill="#333333"/>
<path d="M155.883 23.3511H156.81V26.3856H156.831C157.141 25.7672 157.749 25.405 158.591 25.405C159.806 25.405 160.542 26.2266 160.542 27.4634V31.0468H159.614V27.6346C159.614 26.7544 159.171 26.2266 158.302 26.2266C157.38 26.2266 156.809 26.856 156.809 27.8157V31.0468H155.882V23.3522L155.883 23.3511Z" fill="#333333"/>
<path d="M166.858 29.4567C166.698 30.4274 165.76 31.1419 164.549 31.1419C162.96 31.1419 161.995 30.0376 161.995 28.2939C161.995 26.5503 162.976 25.4041 164.506 25.4041C166.037 25.4041 166.927 26.4918 166.927 28.1714V28.5236H162.949V28.5766C162.949 29.6378 163.573 30.3357 164.57 30.3357C165.274 30.3357 165.792 29.9791 165.946 29.4556H166.858V29.4567ZM162.955 27.7981H165.967C165.946 26.8705 165.364 26.2091 164.49 26.2091C163.615 26.2091 163.012 26.8761 162.954 27.7981H162.955Z" fill="#333333"/>
<path d="M88.0195 37.2109H90.4202L95.6181 51.5234H93.2869L91.9773 47.6552H86.4625L85.1429 51.5234H82.8118L88.0195 37.2109ZM87.0577 45.8696H91.3721L89.2398 39.5807H89.2L87.0577 45.8696Z" fill="#333333"/>
<path d="M97.9525 41.089H100.095V42.8846H100.144C100.769 41.6445 101.92 40.8914 103.408 40.8914C106.066 40.8914 107.772 42.974 107.772 46.3067V46.3167C107.772 49.6394 106.056 51.732 103.437 51.732C101.96 51.732 100.76 50.9778 100.144 49.7686H100.095V54.9963H97.9525V41.0901V41.089ZM105.59 46.3156V46.3056C105.59 44.0838 104.528 42.7256 102.852 42.7256C101.176 42.7256 100.085 44.1335 100.085 46.3056V46.3156C100.085 48.4777 101.235 49.8857 102.852 49.8857C104.469 49.8857 105.59 48.5164 105.59 46.3156Z" fill="#333333"/>
<path d="M110.445 41.089H112.588V42.8846H112.637C113.262 41.6445 114.413 40.8914 115.901 40.8914C118.559 40.8914 120.265 42.974 120.265 46.3067V46.3167C120.265 49.6394 118.549 51.732 115.93 51.732C114.453 51.732 113.253 50.9778 112.637 49.7686H112.588V54.9963H110.445V41.0901V41.089ZM118.083 46.3156V46.3056C118.083 44.0838 117.021 42.7256 115.345 42.7256C113.669 42.7256 112.578 44.1335 112.578 46.3056V46.3156C112.578 48.4777 113.728 49.8857 115.345 49.8857C116.962 49.8857 118.083 48.5164 118.083 46.3156Z" fill="#333333"/>
<path d="M127.692 47.7137L127.682 47.5646H129.844L129.864 47.6938C130.063 49.0134 131.381 49.8361 133.296 49.8361C135.211 49.8361 136.42 48.9737 136.42 47.6342V47.6242C136.42 46.4736 135.636 45.8486 133.742 45.4323L132.185 45.1054C129.378 44.5102 128.02 43.2204 128.02 41.098V41.088C128.03 38.6476 130.182 36.9724 133.208 36.9724C136.233 36.9724 138.236 38.599 138.386 40.9997L138.395 41.1687H136.233L136.223 41.0295C136.025 39.7 134.874 38.8972 133.179 38.8972C131.403 38.9071 130.272 39.7497 130.272 40.9997V41.0096C130.272 42.0808 131.086 42.7356 132.871 43.1221L134.438 43.449C137.394 44.074 138.663 45.2744 138.663 47.4862V47.4962C138.663 50.1045 136.6 51.7609 133.208 51.7609C129.994 51.7609 127.872 50.2337 127.693 47.7137H127.692Z" fill="#333333"/>
<path d="M142.019 48.7761V42.7953H140.522V41.0892H142.019V38.3716H144.211V41.0892H146.164V42.7953H144.211V48.6469C144.211 49.7081 144.687 50.025 145.589 50.025C145.818 50.025 146.005 50.0051 146.164 49.9852V51.6417C145.916 51.6814 145.51 51.7311 145.073 51.7311C143.011 51.7311 142.019 50.8587 142.019 48.775V48.7761Z" fill="#333333"/>
<path d="M148.232 46.3057V46.2859C148.232 42.9532 150.206 40.8904 153.172 40.8904C156.138 40.8904 158.131 42.9432 158.131 46.2859V46.3057C158.131 49.6683 156.168 51.731 153.182 51.731C150.196 51.731 148.232 49.6583 148.232 46.3057ZM155.939 46.3057V46.2859C155.939 44.0044 154.848 42.6859 153.172 42.6859C151.495 42.6859 150.424 44.0055 150.424 46.2859V46.3057C150.424 48.617 151.515 49.9355 153.192 49.9355C154.868 49.9355 155.939 48.6059 155.939 46.3057Z" fill="#333333"/>
<path d="M160.804 41.089H162.946V42.8746H162.996C163.333 41.6544 164.206 40.8914 165.397 40.8914C165.704 40.8914 165.972 40.941 166.141 40.9709V42.9641C165.972 42.8945 165.595 42.8448 165.179 42.8448C163.801 42.8448 162.947 43.747 162.947 45.3051V51.5244H160.805V41.0901L160.804 41.089Z" fill="#333333"/>
<path d="M167.573 46.3455V46.3356C167.573 43.0724 169.458 40.8904 172.383 40.8904C175.308 40.8904 177.104 42.9929 177.104 46.1269V46.8513H169.714C169.754 48.8246 170.835 49.9753 172.541 49.9753C173.811 49.9753 174.653 49.3204 174.922 48.5375L174.951 48.458H176.984L176.965 48.5673C176.628 50.2237 175.021 51.731 172.491 51.731C169.427 51.731 167.572 49.6384 167.572 46.3455H167.573ZM169.745 45.334H174.981C174.802 43.5285 173.791 42.6462 172.393 42.6462C170.995 42.6462 169.932 43.5881 169.745 45.334Z" fill="#333333"/>
<path d="M63.7232 34.3739C62.387 35.3026 61.4793 36.2346 60.9989 37.1711C60.5186 38.1075 60.2778 39.1223 60.2778 40.2134C60.2778 41.0769 60.4203 41.8665 60.7052 42.5831C60.9901 43.2998 61.3931 43.98 61.9144 44.6238C62.4356 45.2676 63.3069 45.907 64.5293 46.542C64.0567 47.9267 63.3234 49.3391 62.3307 50.7813C61.3368 52.2223 60.4368 53.2449 59.6307 53.8478C58.8246 54.4508 58.0549 54.7522 57.3217 54.7522C56.7353 54.7522 55.9447 54.5656 54.9519 54.1902L54.4881 54.019L53.7306 53.701C53.1928 53.5386 52.5987 53.4569 51.9472 53.4569C51.2957 53.4569 50.5304 53.6038 49.6989 53.8964L49.1125 54.1162L48.3793 54.4099C47.7929 54.6385 47.2065 54.7522 46.6201 54.7522C45.3823 54.7522 44.0549 53.8854 42.637 52.1506C41.2202 50.4158 40.1491 48.5506 39.4236 46.5552C38.6981 44.5598 38.3359 42.5445 38.3359 40.5082C38.3359 37.8855 39.0813 35.7035 40.572 33.9598C42.0628 32.2173 44.0858 31.346 46.6433 31.346C47.572 31.346 48.4433 31.5172 49.2583 31.8595L49.8203 32.0793L50.4067 32.3233C50.9279 32.5353 51.3431 32.6413 51.6523 32.6413C52.1084 32.6413 52.5645 32.5519 53.0205 32.373L53.8024 32.0793L54.3644 31.8595C55.2766 31.5172 56.2859 31.346 57.3946 31.346C60.0172 31.346 62.1264 32.3564 63.7232 34.3762V34.3739ZM57.5171 22.7305C57.5492 23.0894 57.5657 23.3654 57.5657 23.5609C57.5657 24.5713 57.272 25.6137 56.6856 26.6882C56.0993 27.7626 55.3329 28.5986 54.3887 29.1927C53.4435 29.7879 52.401 30.0849 51.2614 30.0849C51.2128 29.694 51.1885 29.4091 51.1885 29.2302C51.1885 28.3667 51.4447 27.459 51.9582 26.506C52.4717 25.553 53.1674 24.7425 54.0475 24.0744C54.9276 23.4063 55.9204 22.9833 57.0279 22.8034C57.1262 22.7879 57.2886 22.7625 57.5171 22.7305Z" fill="#333333"/>
</g>
<defs>
<clipPath id="clip0_1_19">
<rect width="220.123" height="77" fill="white"/>
</clipPath>
</defs>
</svg>
