<svg width="221" height="77" viewBox="0 0 221 77" fill="none" xmlns="http://www.w3.org/2000/svg">
<g style="mix-blend-mode:multiply" opacity="0.75">
<g style="mix-blend-mode:screen">
<path d="M204.188 11.1465H21.2956C12.3665 11.1465 5.12793 18.385 5.12793 27.3142V60.8322C5.12793 69.7614 12.3665 76.9999 21.2956 76.9999H204.188C213.117 76.9999 220.356 69.7614 220.356 60.8322V27.3142C220.356 18.385 213.117 11.1465 204.188 11.1465Z" fill="white"/>
</g>
<path d="M203.978 11.4038H21.5042C12.6341 11.4038 5.44357 18.5944 5.44357 27.4644V60.6302C5.44357 69.5002 12.6341 76.6908 21.5042 76.6908H203.978C212.848 76.6908 220.038 69.5002 220.038 60.6302V27.4644C220.038 18.5944 212.848 11.4038 203.978 11.4038Z" fill="#FCFCFC"/>
<path d="M203.77 11.6611H21.7129C12.9026 11.6611 5.76053 18.8032 5.76053 27.6135V60.4292C5.76053 69.2395 12.9026 76.3816 21.7129 76.3816H203.77C212.581 76.3816 219.723 69.2395 219.723 60.4292V27.6135C219.723 18.8032 212.581 11.6611 203.77 11.6611Z" fill="#FAFAFA"/>
<path d="M203.562 11.9172H21.9213C13.1708 11.9172 6.07715 19.0109 6.07715 27.7614V60.226C6.07715 68.9764 13.1708 76.0701 21.9213 76.0701H203.562C212.313 76.0701 219.407 68.9764 219.407 60.226V27.7614C219.407 19.0109 212.313 11.9172 203.562 11.9172Z" fill="#F7F7F7"/>
<path d="M203.353 12.1746H22.1306C13.4393 12.1746 6.39355 19.2203 6.39355 27.9116V60.0239C6.39355 68.7152 13.4393 75.7609 22.1306 75.7609H203.353C212.045 75.7609 219.09 68.7152 219.09 60.0239V27.9116C219.09 19.2203 212.045 12.1746 203.353 12.1746Z" fill="#F4F4F4"/>
<path d="M203.145 12.4319H22.3388C13.7072 12.4319 6.70996 19.4291 6.70996 28.0607V59.823C6.70996 68.4545 13.7072 75.4518 22.3388 75.4518H203.145C211.777 75.4518 218.774 68.4545 218.774 59.823V28.0607C218.774 19.4291 211.777 12.4319 203.145 12.4319Z" fill="#F1F1F1"/>
<path d="M202.936 12.6892H22.547C13.9752 12.6892 7.02637 19.638 7.02637 28.2098V59.622C7.02637 68.1938 13.9752 75.1426 22.547 75.1426H202.936C211.508 75.1426 218.456 68.1938 218.456 59.622V28.2098C218.456 19.638 211.508 12.6892 202.936 12.6892Z" fill="#EFEFEF"/>
<path d="M202.727 12.9465H22.7564C14.2438 12.9465 7.34296 19.8474 7.34296 28.36V59.4189C7.34296 67.9315 14.2438 74.8323 22.7564 74.8323H202.727C211.239 74.8323 218.14 67.9315 218.14 59.4189V28.36C218.14 19.8474 211.239 12.9465 202.727 12.9465Z" fill="#ECECEC"/>
<path d="M202.518 13.2036H22.9644C14.5116 13.2036 7.65918 20.056 7.65918 28.5089V59.2177C7.65918 67.6705 14.5116 74.5229 22.9644 74.5229H202.518C210.971 74.5229 217.824 67.6705 217.824 59.2177V28.5089C217.824 20.056 210.971 13.2036 202.518 13.2036Z" fill="#E9E9E9"/>
<path d="M202.31 13.4609H23.1727C14.7797 13.4609 7.97571 20.2649 7.97571 28.658V59.0167C7.97571 67.4098 14.7797 74.2137 23.1727 74.2137H202.31C210.704 74.2137 217.508 67.4098 217.508 59.0167V28.658C217.508 20.2649 210.704 13.4609 202.31 13.4609Z" fill="#E7E7E7"/>
<path d="M202.101 13.7183H23.3819C15.048 13.7183 8.29199 20.4742 8.29199 28.8082V58.8147C8.29199 67.1486 15.048 73.9046 23.3819 73.9046H202.101C210.435 73.9046 217.191 67.1486 217.191 58.8147V28.8082C217.191 20.4742 210.435 13.7183 202.101 13.7183Z" fill="#E4E4E4"/>
<path d="M201.893 13.9756H23.5902C15.316 13.9756 8.60846 20.6831 8.60846 28.9573V58.6126C8.60846 66.8868 15.316 73.5943 23.5902 73.5943H201.893C210.167 73.5943 216.875 66.8868 216.875 58.6126V28.9573C216.875 20.6831 210.167 13.9756 201.893 13.9756Z" fill="#E1E1E1"/>
<path d="M201.684 14.2329H23.7973C15.5829 14.2329 8.92383 20.892 8.92383 29.1064V58.4116C8.92383 66.626 15.5829 73.2851 23.7973 73.2851H201.684C209.898 73.2851 216.557 66.626 216.557 58.4116V29.1064C216.557 20.892 209.898 14.2329 201.684 14.2329Z" fill="#DEDEDE"/>
<path d="M201.476 14.4902H24.0076C15.8523 14.4902 9.24121 21.1014 9.24121 29.2566V58.2096C9.24121 66.3648 15.8523 72.976 24.0076 72.976H201.476C209.631 72.976 216.242 66.3648 216.242 58.2096V29.2566C216.242 21.1014 209.631 14.4902 201.476 14.4902Z" fill="#DCDCDC"/>
<path d="M201.267 14.7476H24.2148C16.1193 14.7476 9.55664 21.3102 9.55664 29.4057V58.0086C9.55664 66.1041 16.1193 72.6668 24.2148 72.6668H201.267C209.362 72.6668 215.925 66.1041 215.925 58.0086V29.4057C215.925 21.3102 209.362 14.7476 201.267 14.7476Z" fill="#D9D9D9"/>
<path d="M201.059 15.0049H24.4239C16.3882 15.0049 9.87396 21.5191 9.87396 29.5548V57.8066C9.87396 65.8423 16.3882 72.3565 24.4239 72.3565H201.059C209.095 72.3565 215.609 65.8423 215.609 57.8066V29.5548C215.609 21.5191 209.095 15.0049 201.059 15.0049Z" fill="#D6D6D6"/>
<path d="M200.85 15.261H24.6332C16.6567 15.261 10.1904 21.7273 10.1904 29.7038V57.6033C10.1904 65.5799 16.6567 72.0461 24.6332 72.0461H200.85C208.827 72.0461 215.293 65.5799 215.293 57.6033V29.7038C215.293 21.7273 208.827 15.261 200.85 15.261Z" fill="#D4D4D4"/>
<path d="M200.642 15.5183H24.8413C16.9245 15.5183 10.5067 21.9361 10.5067 29.8529V57.4024C10.5067 65.3191 16.9245 71.737 24.8413 71.737H200.642C208.559 71.737 214.976 65.3191 214.976 57.4024V29.8529C214.976 21.9361 208.559 15.5183 200.642 15.5183Z" fill="#D1D1D1"/>
<path d="M200.433 15.7756H25.0496C17.1926 15.7756 10.8232 22.145 10.8232 30.002V57.2014C10.8232 65.0584 17.1926 71.4278 25.0496 71.4278H200.433C208.29 71.4278 214.659 65.0584 214.659 57.2014V30.002C214.659 22.145 208.29 15.7756 200.433 15.7756Z" fill="#CECECE"/>
<path d="M200.223 16.033H25.2587C17.4608 16.033 11.1394 22.3544 11.1394 30.1522V56.9994C11.1394 64.7972 17.4608 71.1186 25.2587 71.1186H200.223C208.021 71.1186 214.343 64.7972 214.343 56.9994V30.1522C214.343 22.3544 208.021 16.033 200.223 16.033Z" fill="#CBCBCB"/>
<path d="M200.015 16.2903H25.4671C17.729 16.2903 11.4561 22.5632 11.4561 30.3013V56.7973C11.4561 64.5354 17.729 70.8083 25.4671 70.8083H200.015C207.754 70.8083 214.027 64.5354 214.027 56.7973V30.3013C214.027 22.5632 207.754 16.2903 200.015 16.2903Z" fill="#C9C9C9"/>
<path d="M199.807 16.5474H25.6753C17.997 16.5474 11.7725 22.7719 11.7725 30.4502V56.5961C11.7725 64.2744 17.997 70.4989 25.6753 70.4989H199.807C207.486 70.4989 213.71 64.2744 213.71 56.5961V30.4502C213.71 22.7719 207.486 16.5474 199.807 16.5474Z" fill="#C6C6C6"/>
<path d="M199.598 16.8047H25.8846C18.2654 16.8047 12.0889 22.9812 12.0889 30.6004V56.3941C12.0889 64.0132 18.2654 70.1898 25.8846 70.1898H199.598C207.217 70.1898 213.394 64.0132 213.394 56.3941V30.6004C213.394 22.9812 207.217 16.8047 199.598 16.8047Z" fill="#C3C3C3"/>
<path d="M199.39 17.062H26.0928C18.5334 17.062 12.4053 23.1901 12.4053 30.7495V56.1931C12.4053 63.7525 18.5334 69.8806 26.0928 69.8806H199.39C206.949 69.8806 213.077 63.7525 213.077 56.1931V30.7495C213.077 23.1901 206.949 17.062 199.39 17.062Z" fill="#C1C1C1"/>
<path d="M199.182 17.3193H26.3012C18.8015 17.3193 12.7219 23.399 12.7219 30.8986V55.9911C12.7219 63.4907 18.8015 69.5703 26.3012 69.5703H199.182C206.682 69.5703 212.761 63.4907 212.761 55.9911V30.8986C212.761 23.399 206.682 17.3193 199.182 17.3193Z" fill="#BEBEBE"/>
<path d="M198.973 17.5767H26.5102C19.0698 17.5767 13.0381 23.6084 13.0381 31.0488V55.789C13.0381 63.2295 19.0698 69.2612 26.5102 69.2612H198.973C206.413 69.2612 212.445 63.2295 212.445 55.789V31.0488C212.445 23.6084 206.413 17.5767 198.973 17.5767Z" fill="#BBBBBB"/>
<path d="M198.765 17.834H26.7185C19.3379 17.834 13.3546 23.8172 13.3546 31.1979V55.5881C13.3546 62.9688 19.3379 68.952 26.7185 68.952H198.765C206.145 68.952 212.129 62.9688 212.129 55.5881V31.1979C212.129 23.8172 206.145 17.834 198.765 17.834Z" fill="#B8B8B8"/>
<path d="M198.556 18.0913H26.9287C19.6072 18.0913 13.6719 24.0266 13.6719 31.3481V55.386C13.6719 62.7075 19.6072 68.6428 26.9287 68.6428H198.556C205.878 68.6428 211.813 62.7075 211.813 55.386V31.3481C211.813 24.0266 205.878 18.0913 198.556 18.0913Z" fill="#B6B6B6"/>
<path d="M27.136 18.3486H198.347C205.605 18.3486 211.496 24.2399 211.496 31.4972V55.185C211.496 62.4423 205.605 68.3336 198.347 68.3336H27.136C19.8787 68.3336 13.9874 62.4423 13.9874 55.185V31.4972C13.9874 24.2399 19.8787 18.3486 27.136 18.3486Z" fill="#B3B3B3"/>
<path d="M198.14 18.6047H27.3451C20.1431 18.6047 14.3047 24.4431 14.3047 31.6451V54.9818C14.3047 62.1838 20.1431 68.0222 27.3451 68.0222H198.14C205.342 68.0222 211.18 62.1838 211.18 54.9818V31.6451C211.18 24.4431 205.342 18.6047 198.14 18.6047Z" fill="#B0B0B0"/>
<path d="M197.929 18.8621H27.5534C20.4105 18.8621 14.6201 24.6525 14.6201 31.7953V54.7797C14.6201 61.9226 20.4105 67.713 27.5534 67.713H197.929C205.072 67.713 210.862 61.9226 210.862 54.7797V31.7953C210.862 24.6525 205.072 18.8621 197.929 18.8621Z" fill="#AEAEAE"/>
<path d="M197.722 19.1194H27.7626C20.6795 19.1194 14.9375 24.8614 14.9375 31.9444V54.5788C14.9375 61.6618 20.6795 67.4038 27.7626 67.4038H197.722C204.805 67.4038 210.547 61.6618 210.547 54.5788V31.9444C210.547 24.8614 204.805 19.1194 197.722 19.1194Z" fill="#ABABAB"/>
<path d="M197.512 19.3767H27.9697C20.9464 19.3767 15.2529 25.0702 15.2529 32.0935V54.3767C15.2529 61.4 20.9464 67.0935 27.9697 67.0935H197.512C204.536 67.0935 210.229 61.4 210.229 54.3767V32.0935C210.229 25.0702 204.536 19.3767 197.512 19.3767Z" fill="#A8A8A8"/>
<path d="M197.303 19.634H28.1791C21.2149 19.634 15.5693 25.2796 15.5693 32.2437V54.1747C15.5693 61.1388 21.2149 66.7844 28.1791 66.7844H197.303C204.267 66.7844 209.913 61.1388 209.913 54.1747V32.2437C209.913 25.2796 204.267 19.634 197.303 19.634Z" fill="#A5A5A5"/>
<path d="M197.095 19.8911H28.3871C21.4827 19.8911 15.8856 25.4882 15.8856 32.3926V53.9735C15.8856 60.8778 21.4827 66.475 28.3871 66.475H197.095C203.999 66.475 209.596 60.8778 209.596 53.9735V32.3926C209.596 25.4882 203.999 19.8911 197.095 19.8911Z" fill="#A3A3A3"/>
<path d="M28.5954 20.1484H196.887C203.727 20.1484 209.28 25.7018 209.28 32.5417V53.7714C209.28 60.6113 203.727 66.1647 196.887 66.1647H28.5954C21.7555 66.1647 16.2021 60.6113 16.2021 53.7714V32.5417C16.2021 25.7018 21.7555 20.1484 28.5954 20.1484Z" fill="#A0A0A0"/>
<path d="M196.678 20.4058H28.8045C22.0191 20.4058 16.5184 25.9065 16.5184 32.6919V53.5694C16.5184 60.3548 22.0191 65.8555 28.8045 65.8555H196.678C203.463 65.8555 208.964 60.3548 208.964 53.5694V32.6919C208.964 25.9065 203.463 20.4058 196.678 20.4058Z" fill="#9D9D9D"/>
<path d="M196.47 20.6631H29.0129C22.2872 20.6631 16.835 26.1153 16.835 32.841V53.3684C16.835 60.0941 22.2872 65.5463 29.0129 65.5463H196.47C203.195 65.5463 208.648 60.0941 208.648 53.3684V32.841C208.648 26.1153 203.195 20.6631 196.47 20.6631Z" fill="#9B9B9B"/>
<path d="M196.262 20.9204H29.222C22.5561 20.9204 17.1523 26.3242 17.1523 32.9901V53.1675C17.1523 59.8334 22.5561 65.2372 29.222 65.2372H196.262C202.928 65.2372 208.332 59.8334 208.332 53.1675V32.9901C208.332 26.3242 202.928 20.9204 196.262 20.9204Z" fill="#989898"/>
<path d="M196.052 21.1777H29.4304C22.8236 21.1777 17.4678 26.5336 17.4678 33.1403V52.9654C17.4678 59.5722 22.8236 64.928 29.4304 64.928H196.052C202.659 64.928 208.015 59.5722 208.015 52.9654V33.1403C208.015 26.5336 202.659 21.1777 196.052 21.1777Z" fill="#959595"/>
<path d="M195.845 21.4351H29.6394C23.0924 21.4351 17.785 26.7425 17.785 33.2895V52.7633C17.785 59.3103 23.0924 64.6177 29.6394 64.6177H195.845C202.392 64.6177 207.699 59.3103 207.699 52.7633V33.2895C207.699 26.7425 202.392 21.4351 195.845 21.4351Z" fill="#929292"/>
<path d="M195.635 21.6924H29.847C23.3597 21.6924 18.1008 26.9513 18.1008 33.4386V52.5624C18.1008 59.0496 23.3597 64.3086 29.847 64.3086H195.635C202.122 64.3086 207.381 59.0496 207.381 52.5624V33.4386C207.381 26.9513 202.122 21.6924 195.635 21.6924Z" fill="#909090"/>
<path d="M195.426 21.9485H30.0568C23.6287 21.9485 18.4177 27.1595 18.4177 33.5875V52.3591C18.4177 58.7872 23.6287 63.9982 30.0568 63.9982H195.426C201.854 63.9982 207.065 58.7872 207.065 52.3591V33.5875C207.065 27.1595 201.854 21.9485 195.426 21.9485Z" fill="#8D8D8D"/>
<path d="M195.218 22.2058H30.2644C23.8961 22.2058 18.7336 27.3683 18.7336 33.7367V52.1582C18.7336 58.5265 23.8961 63.689 30.2644 63.689H195.218C201.586 63.689 206.749 58.5265 206.749 52.1582V33.7367C206.749 27.3683 201.586 22.2058 195.218 22.2058Z" fill="#8A8A8A"/>
<path d="M195.01 22.4631H30.4734C24.1649 22.4631 19.0508 27.5772 19.0508 33.8858V51.9572C19.0508 58.2658 24.1649 63.3798 30.4734 63.3798H195.01C201.319 63.3798 206.433 58.2658 206.433 51.9572V33.8858C206.433 27.5772 201.319 22.4631 195.01 22.4631Z" fill="#888888"/>
<path d="M194.8 22.7205H30.6818C24.4324 22.7205 19.3663 27.7866 19.3663 34.036V51.7541C19.3663 58.0034 24.4324 63.0696 30.6818 63.0696H194.8C201.05 63.0696 206.116 58.0034 206.116 51.7541V34.036C206.116 27.7866 201.05 22.7205 194.8 22.7205Z" fill="#858585"/>
<path d="M194.593 22.9778H30.8909C24.7013 22.9778 19.6836 27.9955 19.6836 34.1851V51.5531C19.6836 57.7427 24.7013 62.7604 30.8909 62.7604H194.593C200.783 62.7604 205.8 57.7427 205.8 51.5531V34.1851C205.8 27.9955 200.783 22.9778 194.593 22.9778Z" fill="#828282"/>
<path d="M194.384 23.2349H31.0981C24.9683 23.2349 19.9991 28.2041 19.9991 34.3339V51.3519C19.9991 57.4818 24.9683 62.451 31.0981 62.451H194.384C200.514 62.451 205.483 57.4818 205.483 51.3519V34.3339C205.483 28.2041 200.514 23.2349 194.384 23.2349Z" fill="#808080"/>
<path d="M194.176 23.4922H31.3084C25.2377 23.4922 20.3164 28.4135 20.3164 34.4841V51.1499C20.3164 57.2206 25.2377 62.1418 31.3084 62.1418H194.176C200.246 62.1418 205.168 57.2206 205.168 51.1499V34.4841C205.168 28.4135 200.246 23.4922 194.176 23.4922Z" fill="#7D7D7D"/>
<path d="M193.967 23.7495H31.5155C25.5046 23.7495 20.6318 28.6223 20.6318 34.6332V50.9478C20.6318 56.9587 25.5046 61.8315 31.5155 61.8315H193.967C199.977 61.8315 204.85 56.9587 204.85 50.9478V34.6332C204.85 28.6223 199.977 23.7495 193.967 23.7495Z" fill="#7A7A7A"/>
<path d="M193.758 24.0068H31.7238C25.7726 24.0068 20.9482 28.8312 20.9482 34.7824V50.7469C20.9482 56.698 25.7726 61.5224 31.7238 61.5224H193.758C199.71 61.5224 204.534 56.698 204.534 50.7469V34.7824C204.534 28.8312 199.71 24.0068 193.758 24.0068Z" fill="#777777"/>
<path d="M193.55 24.2642H31.9341C26.0421 24.2642 21.2657 29.0406 21.2657 34.9326V50.5448C21.2657 56.4368 26.0421 61.2132 31.9341 61.2132H193.55C199.442 61.2132 204.219 56.4368 204.219 50.5448V34.9326C204.219 29.0406 199.442 24.2642 193.55 24.2642Z" fill="#757575"/>
<path d="M193.341 24.5215H32.1412C26.309 24.5215 21.5811 29.2494 21.5811 35.0817V50.3439C21.5811 56.1761 26.309 60.904 32.1412 60.904H193.341C199.173 60.904 203.901 56.1761 203.901 50.3439V35.0817C203.901 29.2494 199.173 24.5215 193.341 24.5215Z" fill="#727272"/>
<path d="M193.133 24.7788H32.3504C26.5779 24.7788 21.8984 29.4583 21.8984 35.2308V50.1418C21.8984 55.9143 26.5779 60.5938 32.3504 60.5938H193.133C198.905 60.5938 203.585 55.9143 203.585 50.1418V35.2308C203.585 29.4583 198.905 24.7788 193.133 24.7788Z" fill="#6F6F6F"/>
<path d="M192.923 25.0361H32.5587C26.8454 25.0361 22.2139 29.6677 22.2139 35.381V49.9397C22.2139 55.653 26.8454 60.2846 32.5587 60.2846H192.923C198.636 60.2846 203.268 55.653 203.268 49.9397V35.381C203.268 29.6677 198.636 25.0361 192.923 25.0361Z" fill="#6D6D6D"/>
<path d="M192.715 25.2922H32.7678C27.1143 25.2922 22.5312 29.8753 22.5312 35.5289V49.7376C22.5312 55.3911 27.1143 59.9742 32.7678 59.9742H192.715C198.369 59.9742 202.952 55.3911 202.952 49.7376V35.5289C202.952 29.8753 198.369 25.2922 192.715 25.2922Z" fill="#6A6A6A"/>
<path d="M192.506 25.5496H32.9751C27.3813 25.5496 22.8467 30.0842 22.8467 35.678V49.5366C22.8467 55.1304 27.3813 59.665 32.9751 59.665H192.506C198.1 59.665 202.635 55.1304 202.635 49.5366V35.678C202.635 30.0842 198.1 25.5496 192.506 25.5496Z" fill="#676767"/>
<path d="M192.298 25.8069H33.1852C27.6506 25.8069 23.1639 30.2936 23.1639 35.8282V49.3335C23.1639 54.8681 27.6506 59.3548 33.1852 59.3548H192.298C197.833 59.3548 202.319 54.8681 202.319 49.3335V35.8282C202.319 30.2936 197.833 25.8069 192.298 25.8069Z" fill="#646464"/>
<path d="M33.3935 26.0642H192.089C197.561 26.0642 202.002 30.5067 202.002 35.9773V49.1325C202.002 54.6042 197.56 59.0456 192.089 59.0456H33.3935C27.9219 59.0456 23.4805 54.6031 23.4805 49.1325V35.9773C23.4805 30.5056 27.923 26.0642 33.3935 26.0642Z" fill="#626262"/>
<path d="M191.881 26.3215H33.6026C28.1869 26.3215 23.7967 30.7118 23.7967 36.1275V48.9305C23.7967 54.3461 28.1869 58.7364 33.6026 58.7364H191.881C197.296 58.7364 201.687 54.3461 201.687 48.9305V36.1275C201.687 30.7118 197.296 26.3215 191.881 26.3215Z" fill="#5F5F5F"/>
<path d="M191.672 26.5786H33.8102C28.4543 26.5786 24.1125 30.9204 24.1125 36.2764V48.7293C24.1125 54.0852 28.4543 58.427 33.8102 58.427H191.672C197.028 58.427 201.37 54.0852 201.37 48.7293V36.2764C201.37 30.9204 197.028 26.5786 191.672 26.5786Z" fill="#5C5C5C"/>
<path d="M191.465 26.8359H34.0192C28.7231 26.8359 24.4297 31.1293 24.4297 36.4255V48.5272C24.4297 53.8234 28.7231 58.1167 34.0192 58.1167H191.465C196.761 58.1167 201.054 53.8234 201.054 48.5272V36.4255C201.054 31.1293 196.761 26.8359 191.465 26.8359Z" fill="#5A5A5A"/>
<path d="M191.255 27.0933H34.2285C28.9915 27.0933 24.7461 31.3387 24.7461 36.5757V48.3252C24.7461 53.5621 28.9915 57.8076 34.2285 57.8076H191.255C196.492 57.8076 200.738 53.5621 200.738 48.3252V36.5757C200.738 31.3387 196.492 27.0933 191.255 27.0933Z" fill="#575757"/>
<path d="M191.047 27.3506H34.4367C29.2595 27.3506 25.0625 31.5476 25.0625 36.7248V48.1242C25.0625 53.3014 29.2595 57.4984 34.4367 57.4984H191.047C196.224 57.4984 200.421 53.3014 200.421 48.1242V36.7248C200.421 31.5476 196.224 27.3506 191.047 27.3506Z" fill="#545454"/>
<path d="M190.838 27.6079H34.6451C29.5276 27.6079 25.3791 31.7564 25.3791 36.8739V47.9233C25.3791 53.0407 29.5276 57.1892 34.6451 57.1892H190.838C195.956 57.1892 200.104 53.0407 200.104 47.9233V36.8739C200.104 31.7564 195.956 27.6079 190.838 27.6079Z" fill="#515151"/>
<path d="M34.8542 27.8652H190.63C195.684 27.8652 199.789 31.9687 199.789 37.0241V47.7212C199.789 52.7755 195.685 56.8801 190.63 56.8801H34.8542C29.7999 56.8801 25.6953 52.7766 25.6953 47.7212V37.0241C25.6953 31.9698 29.7988 27.8652 34.8542 27.8652Z" fill="#4F4F4F"/>
<path d="M190.421 28.1226H35.0625C30.0639 28.1226 26.0118 32.1747 26.0118 37.1732V47.5192C26.0118 52.5177 30.0639 56.5698 35.0625 56.5698H190.421C195.419 56.5698 199.471 52.5177 199.471 47.5192V37.1732C199.471 32.1747 195.419 28.1226 190.421 28.1226Z" fill="#4C4C4C"/>
<path d="M35.2715 28.3787H190.212C195.148 28.3787 199.155 32.3861 199.155 37.3211V47.317C199.155 52.2531 195.147 56.2594 190.212 56.2594H35.2715C30.3354 56.2594 26.3291 52.252 26.3291 47.317V37.3211C26.3291 32.385 30.3365 28.3787 35.2715 28.3787Z" fill="#494949"/>
<path d="M190.003 28.636H35.4799C30.6003 28.636 26.6446 32.5917 26.6446 37.4713V47.1149C26.6446 51.9945 30.6003 55.9502 35.4799 55.9502H190.003C194.883 55.9502 198.839 51.9945 198.839 47.1149V37.4713C198.839 32.5917 194.883 28.636 190.003 28.636Z" fill="#474747"/>
<path d="M189.794 28.8933H35.687C30.8672 28.8933 26.96 32.8006 26.96 37.6204V46.914C26.96 51.7338 30.8672 55.6411 35.687 55.6411H189.794C194.614 55.6411 198.521 51.7338 198.521 46.914V37.6204C198.521 32.8006 194.614 28.8933 189.794 28.8933Z" fill="#444444"/>
<path d="M189.587 29.1506H35.8962C31.1361 29.1506 27.2773 33.0094 27.2773 37.7695V46.7119C27.2773 51.472 31.1361 55.3308 35.8962 55.3308H189.587C194.347 55.3308 198.206 51.472 198.206 46.7119V37.7695C198.206 33.0094 194.347 29.1506 189.587 29.1506Z" fill="#414141"/>
<path d="M189.377 29.408H36.1045C31.4036 29.408 27.5928 33.2188 27.5928 37.9197V46.5099C27.5928 51.2108 31.4036 55.0216 36.1045 55.0216H189.377C194.078 55.0216 197.889 51.2108 197.889 46.5099V37.9197C197.889 33.2188 194.078 29.408 189.377 29.408Z" fill="#3E3E3E"/>
<path d="M189.17 29.6653H36.3136C31.6725 29.6653 27.9101 33.4277 27.9101 38.0688V46.3089C27.9101 50.9501 31.6725 54.7124 36.3136 54.7124H189.17C193.811 54.7124 197.573 50.9501 197.573 46.3089V38.0688C197.573 33.4277 193.811 29.6653 189.17 29.6653Z" fill="#3C3C3C"/>
<path d="M188.962 29.9224H36.5219C31.9405 29.9224 28.2266 33.6363 28.2266 38.2177V46.1077C28.2266 50.6891 31.9405 54.403 36.5219 54.403H188.962C193.543 54.403 197.257 50.6891 197.257 46.1077V38.2177C197.257 33.6363 193.543 29.9224 188.962 29.9224Z" fill="#393939"/>
<path d="M188.752 30.1797H36.731C32.2088 30.1797 28.5428 33.8457 28.5428 38.3679V45.9046C28.5428 50.4268 32.2088 54.0928 36.731 54.0928H188.752C193.274 54.0928 196.94 50.4268 196.94 45.9046V38.3679C196.94 33.8457 193.274 30.1797 188.752 30.1797Z" fill="#363636"/>
<path d="M188.544 30.437H36.9394C32.4769 30.437 28.8594 34.0545 28.8594 38.517V45.7036C28.8594 50.1661 32.4769 53.7836 36.9394 53.7836H188.544C193.007 53.7836 196.624 50.1661 196.624 45.7036V38.517C196.624 34.0545 193.007 30.437 188.544 30.437Z" fill="#343434"/>
<path d="M188.335 30.6943H37.1473C32.7446 30.6943 29.1756 34.2634 29.1756 38.6661V45.5027C29.1756 49.9053 32.7446 53.4744 37.1473 53.4744H188.335C192.737 53.4744 196.307 49.9053 196.307 45.5027V38.6661C196.307 34.2634 192.737 30.6943 188.335 30.6943Z" fill="#313131"/>
<path d="M188.126 30.9517H37.3568C33.0133 30.9517 29.4922 34.4728 29.4922 38.8163V45.3006C29.4922 49.6441 33.0133 53.1653 37.3568 53.1653H188.126C192.469 53.1653 195.99 49.6441 195.99 45.3006V38.8163C195.99 34.4728 192.469 30.9517 188.126 30.9517Z" fill="#2E2E2E"/>
<path d="M187.918 31.209H37.565C33.2813 31.209 29.8086 34.6817 29.8086 38.9654V45.0986C29.8086 49.3823 33.2813 52.855 37.565 52.855H187.918C192.201 52.855 195.674 49.3823 195.674 45.0986V38.9654C195.674 34.6817 192.201 31.209 187.918 31.209Z" fill="#2B2B2B"/>
<path d="M187.709 31.4663H37.7732C33.5492 31.4663 30.125 34.8905 30.125 39.1145V44.8976C30.125 49.1216 33.5492 52.5458 37.7732 52.5458H187.709C191.933 52.5458 195.358 49.1216 195.358 44.8976V39.1145C195.358 34.8905 191.933 31.4663 187.709 31.4663Z" fill="#292929"/>
<path d="M187.5 31.7224H37.9825C33.8177 31.7224 30.4414 35.0987 30.4414 39.2635V44.6943C30.4414 48.8592 33.8177 52.2354 37.9825 52.2354H187.5C191.665 52.2354 195.041 48.8592 195.041 44.6943V39.2635C195.041 35.0987 191.665 31.7224 187.5 31.7224Z" fill="#262626"/>
<path d="M38.1909 31.9797H187.292C191.395 31.9797 194.725 35.3102 194.725 39.4126V44.4934C194.725 48.5958 191.395 51.9263 187.292 51.9263H38.1909C34.0885 51.9263 30.758 48.5958 30.758 44.4934V39.4126C30.758 35.3102 34.0885 31.9797 38.1909 31.9797Z" fill="#232323"/>
<path d="M187.084 32.2371H38.3989C34.3536 32.2371 31.0742 35.5164 31.0742 39.5617V44.2913C31.0742 48.3366 34.3536 51.616 38.3989 51.616H187.084C191.129 51.616 194.409 48.3366 194.409 44.2913V39.5617C194.409 35.5164 191.129 32.2371 187.084 32.2371Z" fill="#212121"/>
<path d="M186.875 32.4944H38.6083C34.6222 32.4944 31.3907 35.7258 31.3907 39.7119V44.0893C31.3907 48.0754 34.6222 51.3068 38.6083 51.3068H186.875C190.861 51.3068 194.092 48.0754 194.092 44.0893V39.7119C194.092 35.7258 190.861 32.4944 186.875 32.4944Z" fill="#1E1E1E"/>
<path d="M186.668 32.7517H38.8173C34.891 32.7517 31.708 35.9347 31.708 39.861V43.8883C31.708 47.8147 34.891 50.9976 38.8173 50.9976H186.668C190.594 50.9976 193.777 47.8147 193.777 43.8883V39.861C193.777 35.9347 190.594 32.7517 186.668 32.7517Z" fill="#1B1B1B"/>
<path d="M186.459 33.009H39.0246C35.158 33.009 32.0235 36.1435 32.0235 40.0101V43.6874C32.0235 47.554 35.158 50.6885 39.0246 50.6885H186.459C190.325 50.6885 193.46 47.554 193.46 43.6874V40.0101C193.46 36.1435 190.325 33.009 186.459 33.009Z" fill="#181818"/>
<path d="M186.25 33.2661H39.2348C35.4274 33.2661 32.3408 36.3527 32.3408 40.1601V43.484C32.3408 47.2914 35.4274 50.378 39.2348 50.378H186.25C190.058 50.378 193.144 47.2914 193.144 43.484V40.1601C193.144 36.3527 190.058 33.2661 186.25 33.2661Z" fill="#161616"/>
<path d="M186.041 33.5234H39.442C35.6943 33.5234 32.6562 36.5615 32.6562 40.3092V43.283C32.6562 47.0307 35.6943 50.0688 39.442 50.0688H186.041C189.789 50.0688 192.827 47.0307 192.827 43.283V40.3092C192.827 36.5615 189.789 33.5234 186.041 33.5234Z" fill="#131313"/>
<path d="M185.833 33.7808H39.6512C35.9633 33.7808 32.9736 36.7704 32.9736 40.4583V43.0821C32.9736 46.77 35.9633 49.7596 39.6512 49.7596H185.833C189.521 49.7596 192.51 46.77 192.51 43.0821V40.4583C192.51 36.7704 189.521 33.7808 185.833 33.7808Z" fill="#101010"/>
<path d="M185.623 34.0381H39.8594C36.2307 34.0381 33.289 36.9798 33.289 40.6085V42.88C33.289 46.5088 36.2307 49.4505 39.8594 49.4505H185.623C189.251 49.4505 192.193 46.5088 192.193 42.88V40.6085C192.193 36.9798 189.251 34.0381 185.623 34.0381Z" fill="#0E0E0E"/>
<path d="M40.0677 34.2954H185.415C188.981 34.2954 191.877 37.1908 191.877 40.7576V42.678C191.877 46.2448 188.981 49.1402 185.415 49.1402H40.0677C36.5009 49.1402 33.6055 46.2448 33.6055 42.678V40.7576C33.6055 37.1908 36.5009 34.2954 40.0677 34.2954Z" fill="#0B0B0B"/>
<path d="M185.206 34.5527H40.2758C36.7665 34.5527 33.9218 37.3975 33.9218 40.9067V42.477C33.9218 45.9862 36.7665 48.831 40.2758 48.831H185.206C188.716 48.831 191.56 45.9862 191.56 42.477V40.9067C191.56 37.3975 188.716 34.5527 185.206 34.5527Z" fill="#080808"/>
<path d="M184.997 34.8101H40.4852C37.0351 34.8101 34.2383 37.6069 34.2383 41.0569V42.275C34.2383 45.725 37.0351 48.5218 40.4852 48.5218H184.997C188.447 48.5218 191.244 45.725 191.244 42.275V41.0569C191.244 37.6069 188.447 34.8101 184.997 34.8101Z" fill="#050505"/>
<path d="M184.789 35.0662H40.6932C37.3029 35.0662 34.5545 37.8145 34.5545 41.2048V42.0728C34.5545 45.4631 37.3029 48.2115 40.6932 48.2115H184.789C188.179 48.2115 190.928 45.4631 190.928 42.0728V41.2048C190.928 37.8145 188.179 35.0662 184.789 35.0662Z" fill="#030303"/>
<path d="M184.58 35.3235H40.9026C37.5715 35.3235 34.8711 38.0239 34.8711 41.355V41.8707C34.8711 45.2019 37.5715 47.9023 40.9026 47.9023H184.58C187.911 47.9023 190.611 45.2019 190.611 41.8707V41.355C190.611 38.0239 187.911 35.3235 184.58 35.3235Z" fill="black"/>
</g>
<path d="M24.7471 7.11255H200.693C209.054 7.11255 215.842 13.9005 215.842 22.261V55.4632C215.842 63.8237 209.054 70.6117 200.693 70.6117H24.7471C16.3866 70.6117 9.59863 63.8237 9.59863 55.4632V22.261C9.59863 13.9005 16.3866 7.11255 24.7471 7.11255Z" fill="#F0F5F7"/>
<path d="M90.7523 28.2043C90.7523 29.1539 90.4707 29.9104 89.9075 30.4735C89.2682 31.1438 88.4344 31.4795 87.4097 31.4795C86.3849 31.4795 85.5931 31.1394 84.9074 30.4592C84.2205 29.7789 83.8771 28.9353 83.8771 27.9282C83.8771 26.9211 84.2205 26.0774 84.9074 25.3972C85.5931 24.717 86.428 24.3757 87.4097 24.3757C87.8966 24.3757 88.3626 24.4707 88.8055 24.6606C89.2483 24.8506 89.6038 25.1034 89.8689 25.4204L89.2715 26.0189C88.8209 25.4811 88.2014 25.2117 87.4097 25.2117C86.6941 25.2117 86.0746 25.4634 85.5523 25.9659C85.0299 26.4694 84.7682 27.1232 84.7682 27.9271C84.7682 28.731 85.0288 29.3847 85.5523 29.8883C86.0746 30.3918 86.693 30.6425 87.4097 30.6425C88.1694 30.6425 88.8021 30.3896 89.309 29.8839C89.6381 29.5537 89.828 29.0954 89.8788 28.5068H87.4097V27.6897H90.7048C90.7368 27.8674 90.7523 28.0375 90.7523 28.2031V28.2043Z" fill="#333333"/>
<path d="M95.9768 25.3651H92.8804V27.5207H95.6732V28.3378H92.8804V30.4934H95.9768V31.3293H92.007V24.5303H95.9768V25.3662V25.3651Z" fill="#333333"/>
<path d="M99.6608 31.3282H98.7862V25.364H96.8868V24.5281H101.559V25.364H99.6597V31.3282H99.6608Z" fill="#333333"/>
<path d="M104.94 31.3283V24.5293H105.813V31.3283H104.94Z" fill="#333333"/>
<path d="M109.688 31.3282H108.814V25.364H106.914V24.5281H111.587V25.364H109.687V31.3282H109.688Z" fill="#333333"/>
<path d="M120.433 30.4502C119.765 31.1371 118.933 31.4805 117.939 31.4805C116.946 31.4805 116.114 31.1371 115.447 30.4502C114.779 29.7634 114.445 28.923 114.445 27.9292C114.445 26.9353 114.779 26.095 115.447 25.4081C116.114 24.7212 116.946 24.3767 117.939 24.3767C118.933 24.3767 119.757 24.7223 120.428 25.4125C121.099 26.1027 121.434 26.9408 121.434 27.9292C121.434 28.9175 121.1 29.7634 120.433 30.4502ZM116.092 29.8804C116.596 30.3895 117.211 30.6446 117.939 30.6446C118.668 30.6446 119.284 30.3906 119.787 29.8804C120.29 29.3713 120.542 28.7198 120.542 27.9292C120.542 27.1385 120.289 26.487 119.787 25.9779C119.284 25.4688 118.668 25.2137 117.939 25.2137C117.211 25.2137 116.596 25.4677 116.092 25.9779C115.59 26.487 115.338 27.1385 115.338 27.9292C115.338 28.7198 115.59 29.3713 116.092 29.8804Z" fill="#333333"/>
<path d="M122.66 31.3283V24.5293H123.724L127.028 29.8188H127.065L127.028 28.508V24.5293H127.902V31.3283H126.99L123.533 25.7826H123.495L123.533 27.0934V31.3283H122.659H122.66Z" fill="#333333"/>
<path d="M114.231 41.2456C112.888 41.2456 111.67 41.7602 110.792 42.6282C109.927 43.4829 109.393 44.6799 109.393 46.0658C109.393 47.5312 109.999 48.7933 110.963 49.658C111.825 50.431 112.973 50.8859 114.231 50.8859C115.413 50.8859 116.499 50.4829 117.341 49.7927C118.397 48.927 119.07 47.6096 119.07 46.0658C119.07 44.9229 118.705 43.908 118.093 43.1085C117.209 41.9535 115.807 41.2467 114.232 41.2467L114.231 41.2456ZM114.231 48.9866C112.77 48.9866 111.511 47.7818 111.511 46.0658C111.511 44.3497 112.771 43.145 114.231 43.145C115.691 43.145 116.951 44.3321 116.951 46.0658C116.951 47.7995 115.691 48.9866 114.231 48.9866ZM103.676 41.2456C102.677 41.2456 101.746 41.5305 100.974 42.0341C99.6863 42.8733 98.8383 44.3199 98.8383 46.0658C98.8383 47.4539 99.3816 48.6586 100.257 49.5166C101.134 50.3747 102.343 50.8859 103.676 50.8859C104.781 50.8859 105.802 50.5348 106.618 49.9252C107.77 49.065 108.514 47.6913 108.514 46.0669C108.514 45.1404 108.275 44.2989 107.859 43.5867C107.02 42.1522 105.458 41.2467 103.676 41.2467V41.2456ZM103.676 48.9866C102.215 48.9866 100.956 47.7818 100.956 46.0658C100.956 44.3497 102.216 43.145 103.676 43.145C105.136 43.145 106.396 44.3321 106.396 46.0658C106.396 47.7995 105.136 48.9866 103.676 48.9866ZM91.1216 42.7242V44.7694H96.0146C95.8689 45.92 95.4857 46.7593 94.9004 47.3434C94.1881 48.0557 93.075 48.8408 91.1216 48.8408C88.1091 48.8408 85.7537 46.4125 85.7537 43.4001C85.7537 40.3876 88.1091 37.9593 91.1216 37.9593C92.7471 37.9593 93.9331 38.5987 94.8098 39.4203L96.252 37.9781C95.0285 36.8097 93.4041 35.9153 91.1216 35.9153C89.7202 35.9153 88.394 36.3029 87.2544 36.9765C85.0392 38.2862 83.5264 40.6758 83.5264 43.4001C83.5264 46.1243 85.1353 48.6652 87.4653 49.9451C88.5563 50.5447 89.8053 50.8859 91.1205 50.8859C93.3478 50.8859 95.0274 50.156 96.3415 48.7867C97.692 47.4362 98.1127 45.5368 98.1127 44.003C98.1127 43.5282 98.0763 43.0898 98.0034 42.7253H91.1205L91.1216 42.7242ZM142.466 44.3122C142.064 43.2355 140.842 41.2456 138.34 41.2456C137.273 41.2456 136.281 41.6078 135.499 42.2483C134.463 43.0964 133.794 44.4326 133.794 46.0658C133.794 48.7679 135.839 50.8859 138.578 50.8859C140.786 50.8859 142.065 49.5354 142.594 48.7503L140.951 47.6548C140.403 48.4576 139.654 48.9877 138.578 48.9877C137.501 48.9877 136.734 48.4952 136.241 47.5267L142.686 44.861L142.467 44.3133L142.466 44.3122ZM135.893 45.9189C135.838 44.0571 137.335 43.1074 138.412 43.1074C139.253 43.1074 139.964 43.5271 140.201 44.13L137.951 45.0642L135.893 45.9189ZM130.654 50.5922H132.772V36.4255H130.654V50.5922ZM127.185 42.3223H127.112C126.637 41.7569 125.724 41.2456 124.574 41.2456C123.425 41.2456 122.389 41.6984 121.559 42.4548C120.594 43.3338 119.955 44.6214 119.955 46.0846C119.955 47.773 120.818 49.2273 122.053 50.0798C122.794 50.5911 123.67 50.887 124.573 50.887C125.724 50.887 126.636 50.3758 127.111 49.7916H127.184V50.4851C127.184 52.3292 126.198 53.3153 124.61 53.3153C123.313 53.3153 122.511 52.3844 122.182 51.5993L120.337 52.3657C120.866 53.6433 122.272 55.2136 124.61 55.2136C127.093 55.2136 129.193 53.7526 129.193 50.1925V41.5383H127.184V42.3234L127.185 42.3223ZM124.757 48.9855C123.296 48.9855 122.073 47.7619 122.073 46.0823C122.073 44.4027 123.297 43.1428 124.757 43.1428C126.217 43.1428 127.331 44.384 127.331 46.0823C127.331 47.7807 126.199 48.9855 124.757 48.9855ZM152.386 36.4255H147.319V50.5922H149.434V45.2243H152.387C153.734 45.2243 155.069 44.6634 155.96 43.6728C156.618 42.9407 157.035 41.9733 157.035 40.8249C157.035 39.6764 156.63 38.7367 155.988 38.0079C155.097 36.9975 153.748 36.4244 152.387 36.4244L152.386 36.4255ZM152.44 43.2532H149.433V38.3966H152.44C154.021 38.3966 154.919 39.7052 154.919 40.8249C154.919 41.9446 154.021 43.2532 152.44 43.2532ZM165.508 41.2191C163.977 41.2191 162.391 41.8938 161.734 43.3879L163.612 44.172C164.013 43.3879 164.76 43.1328 165.544 43.1328C166.637 43.1328 167.749 43.7888 167.768 44.9549V45.1006C167.385 44.882 166.566 44.554 165.563 44.554C164.693 44.554 163.816 44.7594 163.099 45.1592C162.15 45.6892 161.48 46.5594 161.48 47.7432C161.48 48.7713 161.969 49.6006 162.712 50.145C163.339 50.6044 164.147 50.8594 164.999 50.8594C166.42 50.8594 167.204 50.2212 167.696 49.4747H167.769V50.5679H169.811V45.1371C169.811 43.6441 169.15 42.5431 168.105 41.8938C167.389 41.4499 166.495 41.218 165.51 41.218L165.508 41.2191ZM165.253 48.9833C164.56 48.9833 163.594 48.6365 163.594 47.7807C163.594 46.6875 164.797 46.2679 165.836 46.2679C166.766 46.2679 167.203 46.4688 167.767 46.7416C167.603 48.0535 166.473 48.9833 165.252 48.9833H165.253ZM177.245 41.5294L176.241 44.0726L174.821 47.6714H174.748L172.233 41.5294H169.955L171.775 45.6704L173.728 50.1141L171.577 54.8889H173.782L177.907 45.4109L179.596 41.5283H177.245V41.5294ZM158.199 50.5933H160.313V36.4266H158.199V50.5933Z" fill="#333333"/>
<path d="M67.4952 33.9189L50.655 24.0379C49.7937 23.5321 48.7755 23.8215 48.2499 24.5315L62.5127 38.8771L67.4963 33.9178L67.4952 33.9189Z" fill="url(#paint0_linear_1_229)"/>
<path d="M47.8936 52.0543C47.8936 52.4541 48.0161 52.8107 48.2193 53.1012L62.512 38.8781L48.2491 24.5325C48.0283 24.8306 47.8936 25.2017 47.8936 25.6202V52.0543Z" fill="url(#paint1_linear_1_229)"/>
<path d="M67.4101 43.8044L73.1822 40.4176C74.3892 39.7087 74.3892 37.9639 73.1822 37.255L67.4952 33.9189L62.5116 38.8782L67.4101 43.8055V43.8044Z" fill="url(#paint2_linear_1_229)"/>
<path d="M48.2189 53.1C48.7357 53.8399 49.7771 54.1502 50.655 53.6345L67.4101 43.8042L62.5116 38.877L48.2189 53.1Z" fill="url(#paint3_linear_1_229)"/>
<defs>
<linearGradient id="paint0_linear_1_229" x1="25.4322" y1="3.88708" x2="60.1672" y2="32.4249" gradientUnits="userSpaceOnUse">
<stop stop-color="#32A071"/>
<stop offset="0.07" stop-color="#2DA771"/>
<stop offset="0.48" stop-color="#15CF74"/>
<stop offset="0.8" stop-color="#06E775"/>
<stop offset="1" stop-color="#00F076"/>
</linearGradient>
<linearGradient id="paint1_linear_1_229" x1="72.4758" y1="38.6738" x2="46.5397" y2="38.8262" gradientUnits="userSpaceOnUse">
<stop stop-color="#00A1FF"/>
<stop offset="0.26" stop-color="#00BEFF"/>
<stop offset="0.51" stop-color="#00D2FF"/>
<stop offset="0.76" stop-color="#00DFFF"/>
<stop offset="1" stop-color="#00E3FF"/>
</linearGradient>
<linearGradient id="paint2_linear_1_229" x1="76.1074" y1="39.5408" x2="52.6968" y2="37.7044" gradientUnits="userSpaceOnUse">
<stop stop-color="#FFE000"/>
<stop offset="0.41" stop-color="#FFBD00"/>
<stop offset="0.78" stop-color="#FFA500"/>
<stop offset="1" stop-color="#FF9C00"/>
</linearGradient>
<linearGradient id="paint3_linear_1_229" x1="73.0596" y1="35.965" x2="27.9963" y2="65.8798" gradientUnits="userSpaceOnUse">
<stop stop-color="#FF3A44"/>
<stop offset="1" stop-color="#C31162"/>
</linearGradient>
</defs>
</svg>
