<svg width="143" height="42" viewBox="0 0 143 42" fill="none" xmlns="http://www.w3.org/2000/svg">
<path d="M72.9262 36.8217H68.907L60.4187 23.0214V36.8217H56.3993V16.3601H60.4187L68.935 30.1746V16.3601H72.9262V36.8217Z" fill="#6134C4"/>
<path d="M83.3966 37.1027C81.8508 37.1027 80.518 36.7727 79.3986 36.1121C78.279 35.4515 77.4217 34.5663 76.8266 33.456C76.2316 32.3457 75.9343 31.107 75.9343 29.7387V29.1907C75.9343 27.6354 76.227 26.2676 76.8126 25.0872C77.3979 23.9067 78.2201 22.9862 79.2791 22.3258C80.3376 21.6652 81.5649 21.335 82.9612 21.335C84.4319 21.335 85.657 21.6488 86.6361 22.2764C87.6151 22.9041 88.3553 23.778 88.8566 24.8974C89.3576 26.017 89.6084 27.3216 89.6084 28.8111V30.4552H77.6632V27.7711H85.8001V27.462C85.7812 26.9094 85.6736 26.4035 85.4767 25.9445C85.2799 25.4857 84.9756 25.1201 84.5632 24.8482C84.1509 24.5768 83.6123 24.4408 82.9471 24.4408C82.2255 24.4408 81.6332 24.6446 81.1695 25.0522C80.7058 25.4596 80.3614 26.0174 80.1366 26.7246C79.9119 27.4318 79.7993 28.254 79.7993 29.1909V29.7389C79.7993 30.5637 79.9492 31.2944 80.249 31.9313C80.5488 32.5686 80.989 33.0695 81.5702 33.435C82.151 33.8002 82.8395 33.9831 83.6358 33.9831C84.4041 33.9831 85.1044 33.8379 85.7367 33.5474C86.3691 33.2571 86.9103 32.8167 87.3599 32.2264L89.2993 34.3202C88.8216 35.0229 88.0928 35.6624 87.1141 36.2385C86.1347 36.8148 84.8956 37.1027 83.3966 37.1027Z" fill="#6134C4"/>
<path d="M91.3795 29.0781C91.3795 27.5981 91.6607 26.2747 92.2228 25.1083C92.7849 23.9419 93.5976 23.0214 94.6611 22.3467C95.7242 21.6723 97.0103 21.335 98.5187 21.335C100.055 21.335 101.358 21.6723 102.426 22.3467C103.494 23.0214 104.306 23.9419 104.864 25.1083C105.421 26.2747 105.7 27.5981 105.7 29.0781V29.3736C105.7 30.8445 105.421 32.1653 104.864 33.3365C104.306 34.5078 103.496 35.4283 102.432 36.0978C101.369 36.7677 100.074 37.1027 98.5468 37.1027C97.0292 37.1027 95.7362 36.7677 94.6682 36.0978C93.6001 35.4283 92.7849 34.5078 92.2228 33.3365C91.6607 32.1653 91.3795 30.8445 91.3795 29.3736V29.0781ZM95.2583 29.3736C95.2583 30.2165 95.3681 30.9897 95.5883 31.6922C95.8085 32.395 96.1597 32.9551 96.6423 33.3716C97.1248 33.7887 97.7596 33.9969 98.5466 33.9969C99.3338 33.9969 99.9683 33.7887 100.451 33.3716C100.933 32.9551 101.285 32.395 101.505 31.6922C101.725 30.9897 101.835 30.2167 101.835 29.3736V29.0781C101.835 28.2445 101.725 27.4762 101.505 26.7734C101.285 26.0709 100.933 25.5064 100.451 25.08C99.9683 24.6539 99.3243 24.4406 98.5185 24.4406C97.7408 24.4406 97.1108 24.6539 96.6283 25.08C96.1456 25.5064 95.7967 26.0709 95.5814 26.7734C95.3657 27.4762 95.2583 28.2445 95.2583 29.0781V29.3736Z" fill="#6134C4"/>
<path d="M119.813 16.3601C121.377 16.3601 122.722 16.5967 123.846 17.0699C124.971 17.5431 125.83 18.2363 126.425 19.1497C127.02 20.0631 127.317 21.1944 127.317 22.5434C127.317 23.6212 127.132 24.5486 126.762 25.3261C126.392 26.1039 125.87 26.755 125.195 27.2798C124.521 27.8045 123.72 28.221 122.792 28.5303L121.541 29.2051H115.034L115.006 25.9729H119.813C120.59 25.9729 121.237 25.8392 121.752 25.5722C122.267 25.3054 122.654 24.9351 122.912 24.4621C123.169 23.9889 123.298 23.4387 123.298 22.8109C123.298 21.8271 123.014 21.0472 122.448 20.4709C121.881 19.8947 121.002 19.6069 119.813 19.6069H116.341V36.8221H112.322V16.3601H119.813ZM119.096 27.6872L123.34 27.6589L128.105 36.625V36.8217H123.79L119.096 27.6872Z" fill="#6134C4"/>
<path d="M136.001 26.282L138.657 21.616H142.831L138.404 29.0645L143 36.8216H138.826L136.015 31.903L133.219 36.8216H129.017L133.626 29.0645L129.214 21.616H133.401L136.001 26.282Z" fill="#6134C4"/>
<path d="M24.2715 31.0368L38.9415 16.4392C38.9309 16.0134 38.9415 14.8583 38.9415 14.8583C38.1818 9.15031 35.6066 7.20618 35.6066 7.20618C37.532 8.15356 39.3877 9.80481 39.3877 9.80481C38.3485 6.61311 36.1758 5.0136 34.8534 4.3042L13.1338 24.2341C14.4078 27.4264 17.5723 30.7822 24.2715 31.0368Z" fill="#6134C4"/>
<path d="M43.364 34.0411C49.7615 26.9673 53.0642 19.945 54.9591 15.687L34.041 38.7559C37.4314 37.9679 41.2477 36.3814 43.364 34.0411Z" fill="#00AAB2"/>
<path d="M10.7649 34.0139C10.5934 33.9796 10.4544 33.9496 10.3529 33.9249C10.3507 33.9243 10.348 33.9237 10.3456 33.9231C10.312 33.915 10.2828 33.9073 10.2581 33.9006C10.1998 33.8842 10.1394 33.8613 10.078 33.8346C10.0586 33.8263 10.0387 33.8161 10.0189 33.8066C9.97568 33.786 9.93184 33.7637 9.887 33.7386C9.86409 33.7258 9.84119 33.7124 9.81808 33.6985C9.77325 33.6715 9.72763 33.6423 9.68161 33.6114C9.65989 33.5968 9.63856 33.583 9.61663 33.5676C9.55581 33.5247 9.49399 33.4791 9.43139 33.4301C9.42447 33.4248 9.41795 33.4203 9.41104 33.4147C9.34152 33.3598 9.27062 33.3008 9.19913 33.2394C9.17602 33.2194 9.15252 33.1983 9.12922 33.1777C9.07945 33.1341 9.02968 33.0895 8.97912 33.0431C8.95207 33.018 8.92461 32.9927 8.89736 32.967C8.84858 32.921 8.7994 32.874 8.74983 32.826C8.72337 32.8003 8.6969 32.7749 8.67044 32.7486C8.61198 32.6909 8.55313 32.6315 8.49408 32.5714C8.47729 32.5543 8.4607 32.5379 8.44372 32.5205C8.36985 32.4446 8.2956 32.367 8.22114 32.2882C8.19112 32.2566 8.1611 32.2242 8.13108 32.1923C8.08408 32.1421 8.03727 32.0919 7.99027 32.041C7.95551 32.0033 7.92055 31.9653 7.8856 31.9274C7.84353 31.8816 7.80166 31.8358 7.7596 31.7896C7.72227 31.7487 7.68514 31.7078 7.64782 31.6667C7.61661 31.6322 7.58541 31.5974 7.554 31.5628C7.3498 31.3365 7.14697 31.1096 6.9477 30.8886C6.94572 30.8864 6.94375 30.8842 6.94177 30.8821C6.86831 30.8007 6.79543 30.7203 6.72315 30.6411C6.71209 30.6289 6.70083 30.6166 6.68957 30.6044C5.82791 29.662 5.06064 28.9093 4.61549 28.9984C3.89404 29.1451 4.68817 30.884 5.2848 32.0058C5.28717 32.0104 5.28954 32.0147 5.29191 32.0192C5.31284 32.0587 5.33358 32.0973 5.35412 32.1352C5.35451 32.1362 5.35511 32.137 5.3555 32.1379C5.44122 32.2963 5.52061 32.4387 5.58894 32.5588C5.58914 32.5592 5.58953 32.5598 5.58973 32.5602C5.67366 32.7075 5.73963 32.8199 5.77853 32.8853C5.78051 32.8886 5.78248 32.892 5.78446 32.8951C5.79019 32.9046 5.79492 32.9125 5.79907 32.9196C5.80203 32.9246 5.80421 32.9281 5.80658 32.9321C5.81329 32.9431 6.3254 34.1476 6.3254 34.1476C6.3254 34.1476 2.2191 35.1515 0.491023 36.2624C-0.00113268 36.5788 0.23823 37.3308 1.14611 37.1452C2.60579 36.8466 5.79868 36.1554 5.79868 36.1554C5.79868 36.1554 1.76782 38.5794 1.61082 39.1488C1.13367 40.8885 6.11961 37.9164 6.11961 37.9164C4.90482 40.0043 3.70346 41.4427 4.37356 41.5649C5.04741 41.6838 8.42278 37.8303 9.41085 37.1734C9.44007 37.1541 9.47227 37.1367 9.50643 37.1209C9.53033 37.1101 9.5566 37.1008 9.58286 37.0915C9.59294 37.0879 9.60241 37.0838 9.61288 37.0804C9.83921 37.0091 10.1447 36.9955 10.5032 37.0202L10.5034 37.0178C12.1139 37.13 14.8378 38.0527 16.6281 38.3051C16.6727 38.3114 16.8998 38.3596 17.2292 38.4299L20.2959 35.21C16.21 34.9343 12.2431 34.31 10.7649 34.0139Z" fill="#6134C4"/>
<path d="M64.8296 6.47695C64.7633 6.27768 64.583 6.14002 64.2638 6.173C64.1775 6.18189 59.2159 7.21815 59.1736 7.23138C59.2036 7.20886 62.6754 4.31794 62.3189 3.89945C62.3183 3.89866 62.3177 3.89807 62.3173 3.89728C62.0681 3.38794 59.8856 4.95367 58.0196 6.00493C56.8088 6.68708 55.5502 6.83619 55.5502 6.83619C55.5502 6.83619 54.6698 5.14623 54.1154 3.67253C53.565 2.19547 52.0974 2.37637 52.603 4.40365C53.1046 6.43429 53.2429 8.36598 53.2271 9.97891C52.9591 11.6497 51.3041 14.8065 51.1474 15.1339C46.991 23.828 40.955 29.3051 39.327 30.5414C38.9968 30.3141 38.6091 29.9284 38.4095 29.2986C38.0208 28.0727 40.0759 28.1342 41.2425 26.9915C42.4093 25.8486 41.3176 23.6167 41.4373 23.2523C41.5569 22.8879 42.0631 22.6746 42.0631 22.6746L41.4574 21.7409L41.9612 20.7643L40.7304 19.6962C42.1198 19.0895 41.1777 17.7248 40.6153 17.7904C40.0528 17.856 39.032 17.3994 38.935 16.8588C38.9559 16.6799 38.9688 16.4948 38.9763 16.3126L23.8591 31.015C24.0777 31.0278 24.2924 31.044 24.5191 31.05C27.2021 31.1197 27.8348 30.3708 30.0367 31.3122C31.3986 31.8944 32.0245 33.1146 32.3045 33.9614C29.9577 34.8093 27.3885 35.2821 24.8472 35.3375C23.1793 35.3741 21.3645 35.2961 19.5974 35.1598L16.4011 38.2684C16.4768 38.2808 16.5554 38.295 16.628 38.3053C16.8247 38.3331 20.4606 39.1539 21.6495 39.2626C25.0624 39.5746 29.8325 39.6176 34.252 38.6665L54.4551 16.8059C55.5154 14.4786 56.1974 12.7719 56.7022 12.021C56.7026 12.0204 56.703 12.0196 56.7034 12.0192C56.7887 11.9106 56.8959 11.7889 57.0476 11.7013C57.5091 11.4344 58.5225 11.2988 58.7002 11.2784C58.7634 11.2713 58.8282 11.2648 58.8928 11.2585C58.9192 11.2559 58.9449 11.2528 58.9716 11.2502C59.1902 11.2294 59.4171 11.2129 59.648 11.1982C61.456 11.0831 63.5675 11.0559 64.012 10.6814C64.174 10.5449 64.1819 10.4027 64.09 10.2714C64.0717 10.2451 64.0564 10.2082 64.0227 10.1934C62.8936 9.69887 59.9991 9.29064 59.9991 9.29064L64.4785 7.2219C64.9007 7.0321 64.9321 6.78464 64.8296 6.47695Z" fill="#F8B424"/>
<path d="M33.7554 3.82013C35.7491 2.05276 34.7358 0 34.7358 0C34.7358 0 34.3202 0.945408 31.3057 2.25637C28.9281 3.29026 23.9117 2.63714 18.9834 5.19904V14.6049H11.3791C11.1773 17.2114 12.795 18.6478 12.795 18.6478C12.2906 19.4004 12.1511 21.7502 13.1226 24.2053L35.9843 5.02168C34.7727 4.12427 33.7554 3.82013 33.7554 3.82013Z" fill="#DB1B58"/>
<path d="M16.8579 8.22754H12.6064V12.479H16.8579V8.22754Z" fill="#00AAB2"/>
<path d="M17.7683 2.91333H14.8833V5.79832H17.7683V2.91333Z" fill="#F8B424"/>
<path d="M13.7451 1.62256H11.923V3.44464H13.7451V1.62256Z" fill="#6134C4"/>
<path d="M55.4686 6.95924C55.4686 6.95924 58.793 2.26876 59.221 2.3675C59.3863 2.40562 59.4995 2.44828 59.4021 2.94359C59.2473 3.73041 58.4828 5.34868 57.9373 6.13648C57.0486 7.42 55.4686 6.95924 55.4686 6.95924Z" fill="#F8B424"/>
<path d="M6.13171 32.9473C6.13171 32.9473 1.53029 33.2554 0.238287 33.6051C-0.00226089 33.6703 -0.224442 34.3244 0.4421 34.5096C1.2149 34.7243 3.71813 34.6139 4.67598 34.5837C5.53804 34.5564 6.74868 34.5837 7.05006 34.1476C7.29416 33.7941 6.13171 32.9473 6.13171 32.9473Z" fill="#6134C4"/>
</svg>
