<svg width="34" height="25" viewBox="0 0 34 25" fill="none" xmlns="http://www.w3.org/2000/svg">
<g clip-path="url(#clip0_73_166)">
<path d="M0 0H33.3333V25H0V0Z" fill="#012169"/>
<path d="M3.90625 0L16.6146 9.42708L29.2708 0H33.3333V3.22917L20.8333 12.5521L33.3333 21.8229V25H29.1667L16.6667 15.6771L4.21875 25H0V21.875L12.4479 12.6042L0 3.33333V0H3.90625Z" fill="white"/>
<path d="M22.0833 14.6354L33.3333 22.9167V25L19.2188 14.6354H22.0833ZM12.5 15.6771L12.8125 17.5L2.8125 25H0L12.5 15.6771ZM33.3333 0V0.15625L20.3646 9.94792L20.4688 7.65625L30.7292 0H33.3333ZM0 0L12.4479 9.16667H9.32292L0 2.1875V0Z" fill="#C8102E"/>
<path d="M12.5521 0V25H20.8854V0H12.5521ZM0 8.33333V16.6667H33.3333V8.33333H0Z" fill="white"/>
<path d="M0 10.0521V15.0521H33.3333V10.0521H0ZM14.2188 0V25H19.2188V0H14.2188Z" fill="#C8102E"/>
</g>
<defs>
<clipPath id="clip0_73_166">
<rect width="33.3333" height="25" fill="white"/>
</clipPath>
</defs>
</svg>
