<svg width="26" height="26" viewBox="0 0 26 26" fill="none" xmlns="http://www.w3.org/2000/svg">
<path d="M3.325 20.9L5.1125 19.1125C4.00795 17.7059 3.30784 16.0248 3.0875 14.25H0.5625C0.8125 16.7625 1.8125 19.05 3.325 20.9ZM6.875 5.1125C8.28744 4.00986 9.97201 3.31011 11.75 3.0875V0.5625C9.2375 0.8125 6.95 1.8125 5.1 3.325L6.875 5.1125ZM0.5625 11.75H3.0875C3.3125 9.925 4.0375 8.2625 5.1125 6.875L3.325 5.1C1.76852 6.99573 0.807382 9.30941 0.5625 11.75ZM14.3125 0.5625V3.0875C19.2125 3.7375 23 7.9375 23 13C23 18.0625 19.2125 22.2625 14.3125 22.9125V25.4375C20.6 24.775 25.5 19.45 25.5 13C25.5 6.55 20.6 1.225 14.3125 0.5625ZM18 13L14.3125 10.2375L10.5 7.375V18.625L14.3125 15.7625L18 13ZM5.1 22.675C6.99697 24.2294 9.31 25.1903 11.75 25.4375V22.9125C9.97201 22.6899 8.28744 21.9901 6.875 20.8875L5.1 22.675Z" fill="#28085B"/>
</svg>
