<svg width="68" height="51" viewBox="0 0 68 51" fill="none" xmlns="http://www.w3.org/2000/svg">
<path d="M15.6667 20.3333C14.9233 20.3333 14.21 20.4467 13.5 20.55C13.73 19.7767 13.9667 18.99 14.3467 18.2833C14.7267 17.2567 15.32 16.3667 15.91 15.47C16.4033 14.5 17.2733 13.8433 17.9133 13.0133C18.5833 12.2067 19.4967 11.67 20.22 11C20.93 10.3 21.86 9.95002 22.6 9.45668C23.3733 9.01335 24.0467 8.52335 24.7667 8.29002L26.5633 7.55002L28.1433 6.89335L26.5267 0.43335L24.5367 0.913348C23.9 1.07335 23.1233 1.26001 22.24 1.48335C21.3367 1.65001 20.3733 2.10668 19.3 2.52335C18.24 2.99668 17.0133 3.31668 15.8733 4.07668C14.7267 4.80335 13.4033 5.41002 12.2367 6.38335C11.1067 7.38668 9.74333 8.25668 8.73666 9.53335C7.63666 10.7267 6.55 11.98 5.70666 13.4067C4.73 14.7667 4.06666 16.26 3.36666 17.7367C2.73333 19.2133 2.22333 20.7234 1.80666 22.19C1.01666 25.13 0.663329 27.9234 0.526662 30.3134C0.413329 32.7067 0.479996 34.6967 0.619996 36.1367C0.669996 36.8167 0.763329 37.4767 0.829996 37.9333L0.913329 38.4933L0.999996 38.4734C1.59287 41.2428 2.95767 43.7878 4.93654 45.8139C6.91541 47.8401 9.42747 49.2647 12.1821 49.9228C14.9368 50.5809 17.8215 50.4457 20.5025 49.5328C23.1835 48.6199 25.5513 46.9667 27.332 44.7643C29.1127 42.5619 30.2335 39.9004 30.5647 37.0877C30.896 34.2749 30.4241 31.4259 29.2038 28.8701C27.9834 26.3143 26.0645 24.1562 23.6688 22.6455C21.2732 21.1348 18.4988 20.3332 15.6667 20.3333ZM52.3333 20.3333C51.59 20.3333 50.8767 20.4467 50.1667 20.55C50.3967 19.7767 50.6333 18.99 51.0133 18.2833C51.3933 17.2567 51.9867 16.3667 52.5767 15.47C53.07 14.5 53.94 13.8433 54.58 13.0133C55.25 12.2067 56.1633 11.67 56.8867 11C57.5967 10.3 58.5267 9.95002 59.2667 9.45668C60.04 9.01335 60.7133 8.52335 61.4333 8.29002L63.23 7.55002L64.81 6.89335L63.1933 0.43335L61.2033 0.913348C60.5667 1.07335 59.79 1.26001 58.9067 1.48335C58.0033 1.65001 57.04 2.10668 55.9667 2.52335C54.91 3.00002 53.68 3.31668 52.54 4.08002C51.3933 4.80668 50.07 5.41335 48.9033 6.38668C47.7733 7.39002 46.41 8.26002 45.4033 9.53335C44.3033 10.7267 43.2167 11.98 42.3733 13.4067C41.3967 14.7667 40.7333 16.26 40.0333 17.7367C39.4 19.2133 38.89 20.7234 38.4733 22.19C37.6833 25.13 37.33 27.9234 37.1933 30.3134C37.08 32.7067 37.1467 34.6967 37.2867 36.1367C37.3367 36.8167 37.43 37.4767 37.4967 37.9333L37.58 38.4933L37.6667 38.4734C38.2595 41.2428 39.6243 43.7878 41.6032 45.8139C43.5821 47.8401 46.0941 49.2647 48.8488 49.9228C51.6035 50.5809 54.4881 50.4457 57.1692 49.5328C59.8502 48.6199 62.218 46.9667 63.9987 44.7643C65.7794 42.5619 66.9001 39.9004 67.2314 37.0877C67.5626 34.2749 67.0908 31.4259 65.8704 28.8701C64.6501 26.3143 62.7311 24.1562 60.3355 22.6455C57.9399 21.1348 55.1655 20.3332 52.3333 20.3333Z" fill="#FFEAD2"/>
</svg>
