<svg width="68" height="51" viewBox="0 0 68 51" fill="none" xmlns="http://www.w3.org/2000/svg">
<path d="M67.1667 13.07L67.0833 12.51L66.9967 12.53C66.4044 9.76014 65.0399 7.21458 63.0611 5.18786C61.0824 3.16114 58.5702 1.7361 55.8153 1.07763C53.0604 0.419163 50.1754 0.554175 47.494 1.46705C44.8127 2.37992 42.4446 4.03334 40.6637 6.23599C38.8829 8.43865 37.7621 11.1005 37.4311 13.9136C37.1 16.7267 37.5723 19.576 38.7931 22.1319C40.014 24.6878 41.9336 26.8458 44.3298 28.3562C46.726 29.8666 49.5008 30.6676 52.3333 30.6667C53.0767 30.6667 53.79 30.5534 54.5 30.45C54.27 31.2234 54.0333 32.01 53.6533 32.7167C53.2733 33.7434 52.68 34.6334 52.09 35.53C51.5967 36.5 50.7267 37.1567 50.0867 37.9867C49.4167 38.7934 48.5033 39.33 47.78 40C47.07 40.7 46.14 41.05 45.4 41.5434C44.6267 41.9867 43.9533 42.4767 43.2333 42.71L41.4367 43.45L39.8567 44.1067L41.47 50.57L43.46 50.09C44.0967 49.93 44.8733 49.7434 45.7567 49.52C46.66 49.3534 47.6233 48.8967 48.6967 48.48C49.7533 48.0034 50.9833 47.6867 52.1233 46.9234C53.27 46.1967 54.5933 45.59 55.76 44.6167C56.89 43.6133 58.2533 42.7434 59.26 41.47C60.36 40.2767 61.4467 39.0234 62.29 37.5967C63.2667 36.2367 63.93 34.7434 64.63 33.2667C65.2633 31.79 65.7733 30.28 66.19 28.8134C66.98 25.8734 67.3333 23.08 67.47 20.69C67.5833 18.2967 67.5167 16.3067 67.3767 14.8667C67.3298 14.2653 67.2598 13.666 67.1667 13.07ZM30.5 13.07L30.4167 12.51L30.33 12.53C29.7377 9.76014 28.3732 7.21458 26.3945 5.18786C24.4157 3.16114 21.9036 1.7361 19.1487 1.07763C16.3938 0.419163 13.5087 0.554175 10.8274 1.46705C8.14599 2.37992 5.77789 4.03334 3.99706 6.23599C2.21623 8.43865 1.09546 11.1005 0.764417 13.9136C0.433377 16.7267 0.905603 19.576 2.12645 22.1319C3.34731 24.6878 5.26688 26.8458 7.66308 28.3562C10.0593 29.8666 12.8342 30.6676 15.6667 30.6667C16.41 30.6667 17.1233 30.5534 17.8333 30.45C17.6033 31.2234 17.3667 32.01 16.9867 32.7167C16.6067 33.7434 16.0133 34.6334 15.4233 35.53C14.93 36.5 14.06 37.1567 13.42 37.9867C12.75 38.7934 11.8367 39.33 11.1133 40C10.4033 40.7 9.47333 41.05 8.73333 41.5434C7.96 41.9867 7.28667 42.4767 6.56667 42.71L4.77 43.45C3.76667 43.86 3.19333 44.1 3.19333 44.1L4.80667 50.5634L6.79667 50.0834C7.43333 49.9234 8.21 49.7367 9.09333 49.5134C9.99667 49.3467 10.96 48.89 12.0333 48.4734C13.09 47.9967 14.32 47.68 15.46 46.9167C16.6067 46.19 17.93 45.5834 19.0967 44.61C20.2267 43.6067 21.59 42.7367 22.5967 41.4634C23.6967 40.27 24.7833 39.0167 25.6267 37.59C26.6033 36.23 27.2667 34.7367 27.9667 33.26C28.6 31.7834 29.11 30.2734 29.5267 28.8067C30.3167 25.8667 30.67 23.0734 30.8067 20.6834C30.92 18.29 30.8533 16.3 30.7133 14.86C30.6636 14.261 30.5924 13.664 30.5 13.07Z" fill="#FFEAD2"/>
</svg>
